<svg xmlns="http://www.w3.org/2000/svg" xmlns:xlink="http://www.w3.org/1999/xlink" xmlns:lucid="lucid" width="1523" height="2780"><g transform="translate(-38.49999987721761 -40)" lucid:page-tab-id="Hw-4m2Wz-PyE"><path d="M0 0h8569.68v4033.86H0z" fill="#fff"/><path d="M70 200a40 40 0 0 1 40-40h220a40 40 0 0 1 40 40 40 40 0 0 1-40 40H110a40 40 0 0 1-40-40z" stroke="#008573" stroke-width="3" fill="#fff"/><use xlink:href="#a" transform="matrix(1,0,0,1,90.00000000000003,160) translate(14.135802469135825 31.111111111111114)"/><use xlink:href="#b" transform="matrix(1,0,0,1,90.00000000000003,160) translate(168.14814814814815 31.111111111111114)"/><use xlink:href="#c" transform="matrix(1,0,0,1,90.00000000000003,160) translate(57.31481481481484 57.77777777777778)"/><path d="M40 286a6 6 0 0 1 6-6h328a6 6 0 0 1 6 6v48a6 6 0 0 1-6 6H46a6 6 0 0 1-6-6z" fill="#fff"/><path d="M77.24 280h31.24m15.6 0h31.25m15.62 0h31.24m15.6 0h31.25m15.62 0h31.23m15.62 0h31.24m15.62 0H374l.94.07.9.22.88.35.8.5.72.6.6.72.5.8.37.88.23.9.07.95v16m0 16v16l-.07.94-.22.9-.35.88-.5.8-.6.72-.72.6-.8.5-.88.37-.9.23-.95.07h-15.62m-15.62 0h-31.24m-15.62 0h-31.23m-15.62 0H217.8m-15.6 0h-31.25m-15.62 0H124.1m-15.62 0H77.24m-15.62 0H46l-.94-.07-.9-.22-.88-.35-.8-.5-.72-.6-.6-.72-.5-.8-.37-.88-.23-.9L40 334v-16m0-16v-16l.07-.94.22-.9.35-.88.5-.8.6-.72.72-.6.8-.5.88-.37.9-.23.95-.07h15.62" stroke="#008573" stroke-width="3" fill="none"/><use xlink:href="#d" transform="matrix(1,0,0,1,60.00000000000003,280) translate(18.08641975308643 34.44444444444444)"/><use xlink:href="#e" transform="matrix(1,0,0,1,60.00000000000003,280) translate(142.53086419753086 34.44444444444444)"/><use xlink:href="#f" transform="matrix(1,0,0,1,60.00000000000003,280) translate(231.35802469135803 34.44444444444444)"/><path d="M220 242.5v17.44a.06.06 0 0 0 .06.06h.06" stroke="#008573" stroke-width="2" fill="none"/><path d="M221 242.53h-2v-1.03h2z" stroke="#008573" stroke-width=".05" fill="#008573"/><path d="M220.12 275.26L215.48 261h9.27z" stroke="#008573" stroke-width="2" fill="#008573"/><path d="M147.5 46a6 6 0 0 1 6-6h133a6 6 0 0 1 6 6v48a6 6 0 0 1-6 6h-133a6 6 0 0 1-6-6z" stroke="#000" stroke-opacity="0" stroke-width="3" fill="#fff" fill-opacity="0"/><use xlink:href="#g" transform="matrix(1,0,0,1,152.5,45) translate(3.111496913580254 29.583333333333332)"/><path d="M382.5 310H504a6 6 0 0 0 6-6v-86.42a6 6 0 0 1 6-6h375.14" stroke="#008573" stroke-width="2" fill="none"/><path d="M382.53 311h-1.03v-2h1.03z" stroke="#008573" stroke-width=".05" fill="#008573"/><path d="M906.4 211.58l-14.26 4.64v-9.27z" stroke="#008573" stroke-width="2" fill="#008573"/><path d="M911.14 146a6 6 0 0 1 6-6h182.63a6 6 0 0 1 6 6v115.7c-32.5-20.33-52.74-20.33-65-20.33-19.47 0-45.35 20.32-64.8 20.32-12.08 0-32.52 0-64.83-20.33z" stroke="#008573" stroke-width="3" fill="#fff"/><path d="M921.96 156.74a6 6 0 0 1 6-6h182.62a6 6 0 0 1 6 6v115.7c-32.5-20.34-52.74-20.34-65-20.34-19.46 0-45.35 20.33-64.8 20.33-12.08 0-32.5 0-64.82-20.33z" stroke="#008573" stroke-width="3" fill="#fff"/><path d="M932.77 167.47a6 6 0 0 1 6-6h182.63a6 6 0 0 1 6 6v115.7c-32.5-20.33-52.75-20.33-65-20.33-19.47 0-45.36 20.32-64.82 20.32-12.07 0-32.5 0-64.8-20.32z" stroke="#008573" stroke-width="3" fill="#fff"/><use xlink:href="#h" transform="matrix(1,0,0,1,937.7704232283454,166.474609375) translate(8.814814814814824 37.90277777777778)"/><use xlink:href="#i" transform="matrix(1,0,0,1,937.7704232283454,166.474609375) translate(6.345679012345684 64.56944444444446)"/><use xlink:href="#j" transform="matrix(1,0,0,1,937.7704232283454,166.474609375) translate(43.320987654320994 64.56944444444446)"/><path d="M1013.8 483.16a13.25 13.25 0 0 1 10.94 0l121.57 55.05a2.72 2.72 0 0 1 0 4.96l-121.56 55.05a13.25 13.25 0 0 1-10.94 0l-121.56-55.04a2.72 2.72 0 0 1 0-4.95z" stroke="#008573" stroke-width="3" fill="#fff"/><use xlink:href="#k" transform="matrix(1,0,0,1,891.7704231777896,485.6874999999999) translate(50.5246913580247 46.111111111111114)"/><use xlink:href="#l" transform="matrix(1,0,0,1,891.7704231777896,485.6874999999999) translate(41.481481481481495 72.77777777777777)"/><path d="M1385.1 539.77l1.06.26 1.02.42.94.57.83.72.72.83.57.94.42 1.02.26 1.07.08 1.05v51.88h-2v-51.8l-.07-.82-.18-.76-.3-.72-.4-.67-.52-.6-.6-.5-.66-.4-.73-.32-.76-.18-.82-.06h-57.58v-2h57.66zm-234.7 1.92v-2h138.97v2z" stroke="#e81313" stroke-width=".05" fill="#e81313"/><path d="M1150.44 541.7h-1.15l.1-1-.1-.97 1.14-.04z" fill="#e81313"/><path d="M1150.46 541.7h-1.2l.13-1-.13-1 1.2-.04zm-1.13-1.95l.1.94-.12.96h1.1v-1.95z" stroke="#e81313" stroke-width=".05" fill="#e81313"/><path d="M1390 613.8l-4.63-14.27h9.27z" fill="#e81313"/><path d="M1390 617.03l-6-18.5h12zm-3.26-16.5l3.26 10.03 3.26-10.03z" stroke="#e81313" stroke-width=".05" fill="#e81313"/><use xlink:href="#m" transform="matrix(1,0,0,1,1289.3693808334506,525.8541666666665) translate(0.004999999999999005 19.777777777777782)"/><path d="M1020.27 691.73h-2V670.4h2zm0-51h-2V601.9h2z" stroke="#008a0e" stroke-width=".05" fill="#008a0e"/><path d="M1019.27 600.9l1-.05v1.07h-2v-1.07z" fill="#008a0e"/><path d="M1019.27 600.87l1.02-.04v1.1h-2.05v-1.1zm-.98 1.02h1.95v-1.02l-.98.04-.98-.04z" stroke="#008a0e" stroke-width=".05" fill="#008a0e"/><path d="M1019.27 707l-4.63-14.27h9.27z" fill="#008a0e"/><path d="M1019.27 710.23l-6-18.5h12zm-3.26-16.5l3.27 10.03 3.26-10.03z" stroke="#008a0e" stroke-width=".05" fill="#008a0e"/><use xlink:href="#n" transform="matrix(1,0,0,1,1007.5960404617401,640.7295956714058) translate(0.005000000000000782 19.777777777777782)"/><path d="M122.5 884a6 6 0 0 1 6-6h183a6 6 0 0 1 6 6v70a6 6 0 0 1-6 6h-183a6 6 0 0 1-6-6z" stroke="#008573" stroke-width="3" fill="#fff"/><use xlink:href="#o" transform="matrix(1,0,0,1,134.50000000000003,889.9999999999998) translate(5.9938271604938365 21.46527777777778)"/><use xlink:href="#p" transform="matrix(1,0,0,1,134.50000000000003,889.9999999999998) translate(29.63580246913581 48.13194444444444)"/><path d="M1122.55 858.73c0 9.02-46.24 16.34-103.28 16.34S916 867.75 916 858.73V728.07c0-9.03 46.23-16.34 103.27-16.34s103.28 7.3 103.28 16.34z" stroke="#008573" stroke-width="3" fill="#fff"/><path d="M1122.55 728.07c0 9.02-46.24 16.33-103.28 16.33S916 737.1 916 728.07" stroke="#008573" stroke-width="3" fill="none"/><use xlink:href="#q" transform="matrix(1,0,0,1,927.9891732030675,756.3989501312336) translate(41.56172839506173 21.12152777777778)"/><use xlink:href="#r" transform="matrix(1,0,0,1,927.9891732030675,756.3989501312336) translate(21.25308641975309 47.78819444444444)"/><use xlink:href="#s" transform="matrix(1,0,0,1,927.9891732030675,756.3989501312336) translate(130.94444444444443 47.78819444444444)"/><use xlink:href="#t" transform="matrix(1,0,0,1,927.9891732030675,756.3989501312336) translate(0.3271604938271935 74.45486111111111)"/><use xlink:href="#u" transform="matrix(1,0,0,1,927.9891732030675,756.3989501312336) translate(151.87037037037035 74.45486111111111)"/><use xlink:href="#v" transform="matrix(1,0,0,1,927.9891732030675,756.3989501312336) translate(42.796296296296305 101.12152777777777)"/><path d="M122.5 1006a6 6 0 0 1 6-6H304a6 6 0 0 1 6 6v70a6 6 0 0 1-6 6H128.5a6 6 0 0 1-6-6z" fill="#fff"/><path d="M157.75 1000H187m14.63 0h29.25m14.62 0h29.25m14.63 0H304l.94.07.9.22.88.35.8.5.72.6.6.72.5.8.37.88.23.9.07.95v11.67m0 11.66v23.34m0 11.66V1076l-.07.94-.22.9-.35.88-.5.8-.6.72-.72.6-.8.5-.88.37-.9.23-.95.07h-14.63m-14.62 0H245.5m-14.63 0h-29.25m-14.62 0h-29.25m-14.63 0H128.5l-.94-.07-.9-.22-.88-.35-.8-.5-.72-.6-.6-.72-.5-.8-.37-.88-.23-.9-.07-.95v-11.67m0-11.66v-23.34m0-11.66V1006l.07-.94.22-.9.35-.88.5-.8.6-.72.72-.6.8-.5.88-.37.9-.23.95-.07h14.63" stroke="#008573" stroke-width="3" fill="none"/><use xlink:href="#w" transform="matrix(1,0,0,1,134.50000000000003,1012) translate(14.901234567901241 21.46527777777778)"/><use xlink:href="#x" transform="matrix(1,0,0,1,134.50000000000003,1012) translate(9.314814814814838 48.13194444444444)"/><path d="M1019.27 877.57V913a6 6 0 0 1-6 6H337.5" stroke="#008573" stroke-width="2" fill="none"/><path d="M1019.26 876.57l1-.02v1.04h-2v-1.06z" stroke="#008573" stroke-width=".05" fill="#008573"/><path d="M322.24 919l14.26-4.63v9.26z" stroke="#008573" stroke-width="2" fill="#008573"/><path d="M312.5 1041h714a6 6 0 0 1 6 6v16.8" stroke="#008573" stroke-width="2" fill="none"/><path d="M312.53 1042h-1.03v-2h1.03z" stroke="#008573" stroke-width=".05" fill="#008573"/><path d="M1032.5 1079.08l-4.63-14.27h9.27z" stroke="#008573" stroke-width="2" fill="#008573"/><path d="M1027.5 1085.33a9 9 0 0 1 10 0l128.13 85.35a4 4 0 0 1 0 6.65l-128.14 85.36a9 9 0 0 1-10 0l-128.13-85.37a4 4 0 0 1 0-6.65z" stroke="#008573" stroke-width="3" fill="#fff"/><use xlink:href="#y" transform="matrix(1,0,0,1,906.375,1094) translate(46.560555555555574 58.603217317907095)"/><use xlink:href="#z" transform="matrix(1,0,0,1,906.375,1094) translate(49.22104938271605 85.26988398457377)"/><use xlink:href="#A" transform="matrix(1,0,0,1,906.375,1094) translate(86.19635802469136 85.26988398457377)"/><use xlink:href="#B" transform="matrix(1,0,0,1,906.375,1094) translate(118.72722222222222 85.26988398457377)"/><use xlink:href="#C" transform="matrix(1,0,0,1,906.375,1094) translate(61.251913580246914 111.93655065124042)"/><path d="M1126.17 1472.78c0 7.18-41.94 13-93.67 13-51.73 0-93.67-5.82-93.67-13v-104c0-7.18 41.94-13 93.67-13 51.73 0 93.67 5.82 93.67 13z" stroke="#008573" stroke-width="3" fill="#fff"/><path d="M1126.17 1368.78c0 7.18-41.94 13-93.67 13-51.73 0-93.67-5.82-93.67-13" stroke="#008573" stroke-width="3" fill="none"/><use xlink:href="#D" transform="matrix(1,0,0,1,950.828432578741,1393.78125) translate(17.308641975308646 20.27777777777778)"/><use xlink:href="#E" transform="matrix(1,0,0,1,950.828432578741,1393.78125) translate(7.648148148148152 46.94444444444444)"/><use xlink:href="#u" transform="matrix(1,0,0,1,950.828432578741,1393.78125) translate(125.54938271604937 46.94444444444444)"/><use xlink:href="#v" transform="matrix(1,0,0,1,950.828432578741,1393.78125) translate(33.296296296296305 73.61111111111111)"/><path d="M938.64 1534a6 6 0 0 1 6-6h178a6 6 0 0 1 6 6v92a6 6 0 0 1-6 6h-178a6 6 0 0 1-6-6z" stroke="#008573" stroke-width="3" fill="#fff"/><use xlink:href="#F" transform="matrix(1,0,0,1,950.6454231525117,1540) translate(3.1234567901234698 20.27777777777778)"/><use xlink:href="#G" transform="matrix(1,0,0,1,950.6454231525117,1540) translate(22.84567901234569 46.94444444444444)"/><use xlink:href="#H" transform="matrix(1,0,0,1,950.6454231525117,1540) translate(7.413580246913597 73.61111111111111)"/><use xlink:href="#I" transform="matrix(1,0,0,1,950.6454231525117,1540) translate(61.67283950617285 73.61111111111111)"/><path d="M1032.5 1488.28v18.04a.57.57 0 0 0 .57.57.57.57 0 0 1 .58.56v.54" stroke="#008573" stroke-width="2" fill="none"/><path d="M1032.5 1487.28h1v1.03h-2v-1.04z" stroke="#008573" stroke-width=".05" fill="#008573"/><path d="M1033.64 1523.26L1029 1509h9.28z" stroke="#008573" stroke-width="2" fill="#008573"/><path d="M960 46.3a6 6 0 0 1 6-6h133a6 6 0 0 1 6 6v48a6 6 0 0 1-6 6H966a6 6 0 0 1-6-6z" stroke="#000" stroke-opacity="0" stroke-width="3" fill="#fff" fill-opacity="0"/><use xlink:href="#J" transform="matrix(1,0,0,1,965,45.31250000000006) translate(6.087962962962962 29.583333333333332)"/><path d="M1220 62v6m0 7.97v11.98m0 8v11.97m0 7.98v11.98m0 8v11.96m0 8v11.97m0 8v11.97m0 8v11.97m0 7.98v11.98m0 8v11.96m0 8v11.97m0 7.98v12m0 7.98v11.97m0 8v11.97m0 7.98v11.98m0 8v11.97m0 7.98v11.98m0 8v11.97m0 8v11.97m0 7.98v11.98m0 8v11.96m0 8v11.97m0 7.98v12m0 7.98v11.98m0 7.98v11.98m0 8v11.96m0 8v11.97m0 7.98V607m0 8v11.98m0 7.98v11.98m0 7.98v11.98m0 8v11.97m0 7.98v11.98m0 8v11.96m0 7.98v11.98m0 7.98v11.98m0 8v11.96m0 8v11.97m0 7.98v11.98m0 8v11.98m0 7.98v11.98m0 8v11.96m0 8v11.97m0 7.98v11.98m0 8v11.97m0 7.98v11.98m0 7.98v11.98m0 8v11.97m0 7.97v11.98m0 8v11.96m0 8v11.98m0 7.98v11.98m0 8v11.96m0 8v11.97m0 7.98v11.98m0 8V1166m0 7.98v11.98m0 8v11.96m0 8v11.97m0 7.97v11.98m0 8v11.97m0 7.98v11.98m0 7.98v11.98m0 8v11.97m0 8v11.97m0 8v11.96m0 8v11.97m0 7.98v11.98m0 8v11.97m0 7.98v6.08l.02.08.03.07.05.06.05.05.06.06.07.05.08.03h.07l.08.02h.08l.08.02.07.03.06.05.05.05.06.06.05.07.03.08v.07l.02.08v6m0 7.97v11.98m0 8v11.97m0 7.98v11.98m0 8v11.96m0 8v11.97m0 8v11.97m0 8v11.97m0 7.98v11.98m0 7.98v11.98m0 8v11.97m0 7.98v12m0 7.98v11.97m0 8V1706m0 7.98v11.98m0 8v11.97m0 7.98v11.98m0 8v11.97m0 8v11.97m0 7.98v11.98m0 8v11.96m0 8v11.97m0 7.98v12m0 7.98v11.98m0 7.98v11.98m0 8v11.96m0 8v11.97m0 7.98v11.98m0 8v11.97m0 8v11.97m0 7.98v11.98m0 8v11.97m0 7.98v11.98m0 8v11.96m0 7.98v11.98m0 7.98v11.98m0 8v11.97m0 7.97v11.98m0 7.98v11.98m0 8v11.98m0 7.98v11.98m0 8V2265m0 8v11.97m0 7.98v11.98m0 8v11.97m0 7.98v11.98m0 7.98v11.98m0 8v11.97m0 7.97v11.98m0 8v11.96m0 8v11.98m0 7.98v11.98m0 8v11.97m0 8v11.97m0 7.98v11.98m0 8v11.97m0 7.98v11.98m0 8v11.96m0 8v11.97m0 7.97v11.98m0 8v11.97m0 7.98v11.98m0 7.98v11.98m0 8v11.97m0 8v11.97m0 8v11.96m0 8v11.97m0 7.98v11.98m0 8v11.97m0 7.98v6M1220 62.05V60M1221 2817.95v2.05M840 62v6m0 7.98v11.98m0 8v11.97m0 8v11.97m0 8v11.97m0 8v11.98m0 8v11.97m0 8v11.97m0 7.98v11.98m0 8v11.97m0 8v11.97m0 8v11.97m0 8v11.97m0 8v11.97m0 8v12m0 7.97v12m0 7.98v11.98m0 8v11.97m0 8v11.97m0 8v11.97m0 8v11.97m0 8v11.98m0 8v11.97m0 8v11.98m0 7.98v12m0 7.98v12m0 7.98v11.98m0 8v11.97m0 8v11.98m0 8v11.97m0 8v11.97m0 8v11.97m0 7.98v11.98m0 8v11.98m0 7.98v12m0 7.97v11.98m0 8v11.97m0 8v11.97m0 8v11.97m0 7.98v11.98m0 8v11.97m0 8v11.97m0 8v11.97m0 8v11.98m0 7.98v12m0 7.97v12m0 7.97v12m0 7.98v11.98m0 8v11.97m0 8v11.97m0 8v11.97m0 8v11.97m0 8v11.98m0 8v11.97m0 8v11.98m0 7.98v12m0 8v11.97m0 8v11.97m0 8v11.97m0 8v11.98m0 8v11.97m0 8v11.97m0 8v11.97m0 7.98v11.98m0 8v11.98m0 7.98v12m0 7.98v11.98m0 8v11.97m0 8V1426m0 8v11.97m0 7.98v11.98m0 8v11.97m0 8v11.97m0 8v11.97m0 8v11.98m0 8v11.97m0 8v11.97m0 7.98v11.98m0 8v11.97m0 8v11.97m0 8v11.97m0 8v11.97m0 8v11.97m0 8v12m0 7.97v12m0 7.98v11.98m0 8v11.97m0 8v11.97m0 8v11.97m0 8v11.97m0 8v11.98m0 8v11.97m0 8v11.98m0 7.98v12m0 7.98v12m0 7.98v11.98m0 8v11.97m0 8v11.98m0 8v11.97m0 8v11.97m0 8v11.97m0 7.98v11.98m0 8v11.97m0 8V2125m0 8v11.98m0 8v11.97m0 8v11.97m0 8v11.97m0 7.98v11.98m0 8v11.97m0 8v11.97m0 8v11.97m0 8v11.97m0 8v11.98m0 7.98v12m0 7.98v11.98m0 8v11.97m0 8v11.97m0 8v11.97m0 8v11.97m0 8v11.97m0 8v11.98m0 8v11.97m0 8v11.98m0 7.98v12m0 8v11.97m0 8v11.97m0 8v11.97m0 8v11.98m0 8v11.97m0 8v11.97m0 8v11.97m0 7.98v12m0 7.97v12m0 7.97v12m0 7.98v11.98m0 8v11.97m0 8V2804m0 8v5.98M840 62.05V60M840 2817.95v2.05M470 62v6m0 7.98v11.98m0 8v11.97m0 8v11.97m0 8v11.97m0 8v11.98m0 8v11.97m0 8v11.97m0 7.98v11.98m0 8v11.97m0 8v11.97m0 8v11.97m0 8v11.97m0 8v11.97m0 8v12m0 7.97v12m0 7.98v11.98m0 8v11.97m0 8v11.97m0 8v11.97m0 8v11.97m0 8v11.98m0 8v11.97m0 8v11.98m0 7.98v12m0 7.98v12m0 7.98v11.98m0 8v11.97m0 8v11.98m0 8v11.97m0 8v11.97m0 8v11.97m0 7.98v11.98m0 8v11.98m0 7.98v12m0 7.97v11.98m0 8v11.97m0 8v11.97m0 8v11.97m0 7.98v11.98m0 8v11.97m0 8v11.97m0 8v11.97m0 8v11.98m0 7.98v12m0 7.97v12m0 7.97v12m0 7.98v11.98m0 8v11.97m0 8v11.97m0 8v11.97m0 8v11.97m0 8v11.98m0 8v11.97m0 8v11.98m0 7.98v12m0 8v11.97m0 8v11.97m0 8v11.97m0 8v11.98m0 8v11.97m0 8v11.97m0 8v11.97m0 7.98v11.98m0 8v11.98m0 7.98v12m0 7.98v11.98m0 8v11.97m0 8V1426m0 8v11.97m0 7.98v11.98m0 8v11.97m0 8v11.97m0 8v11.97m0 8v11.98m0 8v11.97m0 8v11.97m0 7.98v11.98m0 8v11.97m0 8v11.97m0 8v11.97m0 8v11.97m0 8v11.97m0 8v12m0 7.97v12m0 7.98v11.98m0 8v11.97m0 8v11.97m0 8v11.97m0 8v11.97m0 8v11.98m0 8v11.97m0 8v11.98m0 7.98v12m0 7.98v12m0 7.98v11.98m0 8v11.97m0 8v11.98m0 8v11.97m0 8v11.97m0 8v11.97m0 7.98v11.98m0 8v11.97m0 8V2125m0 8v11.98m0 8v11.97m0 8v11.97m0 8v11.97m0 7.98v11.98m0 8v11.97m0 8v11.97m0 8v11.97m0 8v11.97m0 8v11.98m0 7.98v12m0 7.98v11.98m0 8v11.97m0 8v11.97m0 8v11.97m0 8v11.97m0 8v11.97m0 8v11.98m0 8v11.97m0 8v11.98m0 7.98v12m0 8v11.97m0 8v11.97m0 8v11.97m0 8v11.98m0 8v11.97m0 8v11.97m0 8v11.97m0 7.98v12m0 7.97v12m0 7.97v12m0 7.98v11.98m0 8v11.97m0 8V2804m0 8v5.98M470 62.05V60M470 2817.95v2.05" stroke="#ba23f6" stroke-width="4" fill="none"/><path d="M1019.27 279.9v22.95" stroke="#008573" stroke-width="2" fill="none"/><path d="M1020.27 279.92h-2v-.6l2-.84z" stroke="#008573" stroke-width=".05" fill="#008573"/><path d="M1019.27 318.12l-4.63-14.27h9.27z" stroke="#008573" stroke-width="2" fill="#008573"/><path d="M911.14 328.85a6 6 0 0 1 6-6h204.25a6 6 0 0 1 6 6V435a6 6 0 0 1-6 6H917.13a6 6 0 0 1-6-6z" stroke="#008573" stroke-width="3" fill="#fff"/><use xlink:href="#K" transform="matrix(1,0,0,1,923.1454231777896,334.85156249999994) translate(37.3641975308642 26.68402777777778)"/><use xlink:href="#L" transform="matrix(1,0,0,1,923.1454231777896,334.85156249999994) translate(18.876543209876544 53.35069444444445)"/><use xlink:href="#M" transform="matrix(1,0,0,1,923.1454231777896,334.85156249999994) translate(9.246913580246925 80.01736111111111)"/><path d="M1019.27 443.5v18.48" stroke="#008573" stroke-width="2" fill="none"/><path d="M1020.27 443.53h-2v-1.03h2z" stroke="#008573" stroke-width=".05" fill="#008573"/><path d="M1019.27 477.25l-4.63-14.27h9.27z" stroke="#008573" stroke-width="2" fill="#008573"/><path d="M220 962.5V980" stroke="#008573" stroke-width="2" fill="none"/><path d="M221 962.53h-2v-1.03h2z" stroke="#008573" stroke-width=".05" fill="#008573"/><path d="M220 995.26L215.37 981h9.26z" stroke="#008573" stroke-width="2" fill="#008573"/><path d="M1033.13 1335.78h-2v-10.97h2zm-.13-40.63h-2v-28.48h2z" stroke="#008a0e" stroke-width=".05" fill="#008a0e"/><path d="M1031.27 1265.63l1.23.07.5-.03v1.03h-2v-1.12z" fill="#008a0e"/><path d="M1031.27 1265.6l1.23.08.53-.03v1.07h-2.06v-1.17zm-.24 1.08h1.94v-.98l-.47.03-1.23-.07-.24-.05z" stroke="#008a0e" stroke-width=".05" fill="#008a0e"/><path d="M1032.13 1351.05l-4.64-14.27h9.27z" fill="#008a0e"/><path d="M1032.13 1354.3l-6-18.52h12zm-3.26-16.52l3.26 10.03 3.26-10.02z" stroke="#008a0e" stroke-width=".05" fill="#008a0e"/><use xlink:href="#n" transform="matrix(1,0,0,1,1020.3906068386102,1295.1465434566173) translate(0.005000000000000782 19.777777777777782)"/><path d="M1405.1 1173.1l1.06.25 1.02.42.94.57.83.72.72.83.57.93.42 1 .26 1.08.08 1.07V1360h-2v-179.95l-.07-.82-.18-.77-.3-.72-.4-.67-.52-.6-.6-.5-.66-.4-.73-.3-.76-.2-.82-.06h-53.12v-2h53.2zm-235.18 1.9v-2h143.9v2z" stroke="#e81313" stroke-width=".05" fill="#e81313"/><path d="M1169.94 1175h-1.12l.1-1-.1-1h1.13z" fill="#e81313"/><path d="M1169.97 1175.03h-1.18l.1-1.02-.1-1.02h1.17zm-1.12-2l.1.98-.1.98h1.07v-1.95z" stroke="#e81313" stroke-width=".05" fill="#e81313"/><path d="M1410 1375.26l-4.63-14.26h9.27z" fill="#e81313"/><path d="M1410 1378.5l-6-18.5h12zm-3.26-16.5l3.26 10.03 3.26-10.03z" stroke="#e81313" stroke-width=".05" fill="#e81313"/><use xlink:href="#m" transform="matrix(1,0,0,1,1313.8307110949772,1159.1750184214995) translate(0.004999999999999005 19.777777777777782)"/><path d="M1260 1386a6 6 0 0 1 6-6h288a6 6 0 0 1 6 6v88a6 6 0 0 1-6 6h-288a6 6 0 0 1-6-6z" stroke="#008573" stroke-width="3" fill="#fff"/><use xlink:href="#N" transform="matrix(1,0,0,1,1280,1380) translate(1.9135802469135967 41.111111111111114)"/><use xlink:href="#O" transform="matrix(1,0,0,1,1280,1380) translate(127.53086419753087 41.111111111111114)"/><use xlink:href="#P" transform="matrix(1,0,0,1,1280,1380) translate(39.44444444444446 67.77777777777777)"/><use xlink:href="#i" transform="matrix(1,0,0,1,1280,1380) translate(119.50617283950618 67.77777777777777)"/><use xlink:href="#Q" transform="matrix(1,0,0,1,1280,1380) translate(156.4814814814815 67.77777777777777)"/><path d="M1468 618.53c28.72 0 52 23.5 52 52.47s-23.28 52.47-52 52.47h-156c-28.72 0-52-23.5-52-52.47 0-28.98 23.28-52.47 52-52.47z" stroke="#008573" stroke-width="3" fill="#fff"/><use xlink:href="#N" transform="matrix(1,0,0,1,1265,623.530183727034) translate(17.412407407407407 38.55902777777778)"/><use xlink:href="#R" transform="matrix(1,0,0,1,1265,623.530183727034) translate(143.0296913580247 38.55902777777778)"/><use xlink:href="#i" transform="matrix(1,0,0,1,1265,623.530183727034) translate(15.591419753086436 65.22569444444446)"/><use xlink:href="#S" transform="matrix(1,0,0,1,1265,623.530183727034) translate(52.566728395061745 65.22569444444446)"/><path d="M105 2339.2a6 6 0 0 1 6-6h198a6 6 0 0 1 6 6v92a6 6 0 0 1-6 6H111a6 6 0 0 1-6-6z" stroke="#008573" stroke-width="3" fill="#fff"/><use xlink:href="#T" transform="matrix(1,0,0,1,117,2345.202099737533) translate(35.283950617283956 20.27777777777778)"/><use xlink:href="#U" transform="matrix(1,0,0,1,117,2345.202099737533) translate(3.2469135802469395 46.94444444444444)"/><use xlink:href="#V" transform="matrix(1,0,0,1,117,2345.202099737533) translate(82.93827160493828 46.94444444444444)"/><use xlink:href="#s" transform="matrix(1,0,0,1,117,2345.202099737533) translate(151.9506172839506 46.94444444444444)"/><use xlink:href="#x" transform="matrix(1,0,0,1,117,2345.202099737533) translate(20.314814814814838 73.61111111111111)"/><path d="M1513 2379.24l-.08 1.06-.26 1.07-.42 1-.57.95-.72.83-.83.72-.94.57-1.02.42-1.06.26-1.06.08H335v-2h1170.96l.82-.06.76-.2.73-.3.67-.4.6-.5.5-.6.4-.67.3-.72.2-.77.06-.82V1482.5h2z" stroke="#008573" stroke-width=".05" fill="#008573"/><path d="M1513 1482.53h-2v-1.03h2z" fill="#008573"/><path d="M1513.03 1482.55h-2.06v-1.08h2.06zm-2-1.02v.97h1.94v-.97z" stroke="#008573" stroke-width=".05" fill="#008573"/><path d="M334 2389.84l-14.26-4.64 14.26-4.63z" fill="#008573"/><path d="M335 2391.2l-18.5-6 18.5-6zm-12.03-6l10.03 3.26v-6.52z" stroke="#008573" stroke-width=".05" fill="#008573"/><path d="M1028.26 2562.64a12.26 12.26 0 0 1 10.78 0l122.03 59.72a2.94 2.94 0 0 1 0 5.28l-122.03 59.72a12.26 12.26 0 0 1-10.78 0l-122.04-59.72a2.94 2.94 0 0 1 0-5.28z" stroke="#008573" stroke-width="3" fill="#fff"/><use xlink:href="#W" transform="matrix(1,0,0,1,912.8329231525117,2572) translate(62.202530864197534 44.27777777777778)"/><use xlink:href="#X" transform="matrix(1,0,0,1,912.8329231525117,2572) translate(55.69635802469136 70.94444444444446)"/><path d="M943.6 2443.2a6 6 0 0 1 6-6h165.8a6 6 0 0 1 6 6v68a6 6 0 0 1-6 6H949.6a6 6 0 0 1-6-6z" stroke="#008573" stroke-width="3" fill="#fff"/><use xlink:href="#K" transform="matrix(1,0,0,1,955.59375,2449.202099737533) translate(17.864197530864203 21.27777777777778)"/><use xlink:href="#Y" transform="matrix(1,0,0,1,955.59375,2449.202099737533) translate(17.864197530864196 47.94444444444444)"/><path d="M210 2439.7v31.5a6 6 0 0 0 6 6h707.6" stroke="#008573" stroke-width="2" fill="none"/><path d="M211 2439.73h-2v-1.03h2z" stroke="#008573" stroke-width=".05" fill="#008573"/><path d="M938.86 2477.2l-14.27 4.64v-9.27z" stroke="#008573" stroke-width="2" fill="#008573"/><path d="M1032.5 2519.7v19.02a.57.57 0 0 0 .57.58.57.57 0 0 1 .58.57v1.52" stroke="#008573" stroke-width="2" fill="none"/><path d="M1033.5 2519.73h-2v-1.03h2z" stroke="#008573" stroke-width=".05" fill="#008573"/><path d="M1033.64 2556.65l-4.63-14.26h9.28z" stroke="#008573" stroke-width="2" fill="#008573"/><path d="M731 2757.28l.07.82.18.76.3.72.4.67.52.6.6.5.66.42.73.3.76.18.82.06h291.57l.83-.05.76-.18.7-.3.68-.4.6-.52.5-.6.42-.67.3-.72.18-.76.07-.82v-66.17h2v66.25l-.1 1.06-.24 1.08-.4 1-.6.95-.7.84-.84.7-.93.58-1.02.42-1.06.26-1.06.08H735.96l-1.06-.07-1.06-.26-1.02-.42-.94-.57-.83-.7-.72-.85-.57-.94-.42-1.02-.26-1.07-.08-1.05v-867.98h2zM896 794.4H736.03l-.82.06-.76.2-.73.3-.67.4-.6.5-.5.6-.4.67-.3.73-.2.76-.06.82V1859.7h-2V799.36l.08-1.06.26-1.06.42-1.02.57-.94.72-.83.83-.72.94-.57 1.02-.42 1.06-.26 1.06-.08H896z" stroke="#008a0e" stroke-width=".05" fill="#008a0e"/><path d="M1033.64 2690.1l1-.03v1.07h-2v-1.07z" fill="#008a0e"/><path d="M1033.64 2690.1l1.03-.06v1.12h-2.05v-1.12zm-.97 1h1.95v-1l-.97.04-.98-.05z" stroke="#008a0e" stroke-width=".05" fill="#008a0e"/><path d="M911.25 793.4L897 798.03v-9.27z" fill="#008a0e"/><path d="M914.5 793.4l-18.5 6v-12zm-16.5 3.26L908 793.4 898 790.14z" stroke="#008a0e" stroke-width=".05" fill="#008a0e"/><use xlink:href="#n" transform="matrix(1,0,0,1,718.3256172839506,1859.7022377470173) translate(0.005000000000000782 19.777777777777782)"/><path d="M1405.1 2624.08l1.06.26 1.02.42.94.57.83.72.72.83.57.94.42 1.02.26 1.06.08 1.06V2660h-2v-28.96l-.07-.82-.18-.76-.3-.73-.4-.67-.52-.6-.6-.5-.66-.4-.73-.3-.76-.2-.82-.06H1292.5v-2h111.54zm-239.88 1.92v-2h90.26v2z" stroke="#e81313" stroke-width=".05" fill="#e81313"/><path d="M1165.25 2626h-1.14l.12-1-.1-.98 1.13-.02z" fill="#e81313"/><path d="M1165.27 2626.03h-1.2l.13-1.03-.1-1 1.17-.03zm-1.13-2l.1.97-.1.97h1.08v-1.94z" stroke="#e81313" stroke-width=".05" fill="#e81313"/><path d="M1410 2675.26l-4.63-14.26h9.27z" fill="#e81313"/><path d="M1410 2678.5l-6-18.5h12zm-3.26-16.5l3.26 10.03 3.26-10.03z" stroke="#e81313" stroke-width=".05" fill="#e81313"/><g><use xlink:href="#m" transform="matrix(1,0,0,1,1255.4791827839856,2610.1666666666665) translate(0.004999999999999005 19.777777777777782)"/></g><path d="M1476 2680c24.3 0 44 22.4 44 50s-19.7 50-44 50h-132c-24.3 0-44-22.4-44-50s19.7-50 44-50z" stroke="#008573" stroke-width="3" fill="#fff"/><g><use xlink:href="#Z" transform="matrix(1,0,0,1,1305,2685) translate(32.31981481481484 37.46527777777778)"/><use xlink:href="#P" transform="matrix(1,0,0,1,1305,2685) translate(3.955617283950625 64.13194444444446)"/><use xlink:href="#i" transform="matrix(1,0,0,1,1305,2685) translate(84.01734567901235 64.13194444444446)"/><use xlink:href="#aa" transform="matrix(1,0,0,1,1305,2685) translate(120.99265432098765 64.13194444444446)"/></g><path d="M1028.65 1683.33a9 9 0 0 1 10 0l128.13 85.35a4 4 0 0 1 0 6.65l-128.14 85.36a9 9 0 0 1-10 0l-128.13-85.37a4 4 0 0 1 0-6.65z" stroke="#008573" stroke-width="3" fill="#fff"/><g><use xlink:href="#ab" transform="matrix(1,0,0,1,907.5204231525117,1692) translate(65.8506790123457 58.02777777777778)"/><use xlink:href="#ac" transform="matrix(1,0,0,1,907.5204231525117,1692) translate(47.61611111111112 84.69444444444446)"/><use xlink:href="#ad" transform="matrix(1,0,0,1,907.5204231525117,1692) translate(85.88771604938273 84.69444444444446)"/><use xlink:href="#s" transform="matrix(1,0,0,1,907.5204231525117,1692) translate(174.59141975308643 84.69444444444446)"/><use xlink:href="#ae" transform="matrix(1,0,0,1,907.5204231525117,1692) translate(65.8506790123457 111.36111111111111)"/></g><path d="M1033.64 1634.5v27.3" stroke="#008573" stroke-width="2" fill="none"/><path d="M1034.64 1634.53h-2v-1.03h2z" stroke="#008573" stroke-width=".05" fill="#008573"/><path d="M1033.64 1677.08l-4.63-14.27h9.28z" stroke="#008573" stroke-width="2" fill="#008573"/><path d="M936.67 1986a6 6 0 0 1 6-6h179.66a6 6 0 0 1 6 6v94c-32-16.7-51.94-16.7-64-16.7-19.18 0-44.67 16.7-63.84 16.7-11.9 0-32.02 0-63.83-16.7z" stroke="#008573" stroke-width="3" fill="#fff"/><g><use xlink:href="#af" transform="matrix(1,0,0,1,941.6664615762559,1985) translate(35.13580246913581 27.02777777777778)"/><use xlink:href="#ag" transform="matrix(1,0,0,1,941.6664615762559,1985) translate(19.70370370370371 53.69444444444445)"/></g><path d="M1030.7 1960h-2v-24.2h2zm1.6-53.87h-2v-41.7h2z" stroke="#008a0e" stroke-width=".05" fill="#008a0e"/><path d="M1031.2 1863.4l1.1.2v.86h-2v-1.3z" fill="#008a0e"/><path d="M1031.2 1863.4l1.14.2v.9h-2.05v-1.4zm-.86 1.04h1.95v-.8l-1.1-.2-.86-.26z" stroke="#008a0e" stroke-width=".05" fill="#008a0e"/><path d="M1029.7 1975.26l-4.64-14.26h9.27z" fill="#008a0e"/><path d="M1029.7 1978.5l-6.02-18.5h12.02zm-3.27-16.5l3.26 10.03 3.25-10.03z" stroke="#008a0e" stroke-width=".05" fill="#008a0e"/><g><use xlink:href="#n" transform="matrix(1,0,0,1,1018.827724530578,1906.1343369797848) translate(0.005000000000000782 19.777777777777782)"/></g><path d="M1355.1 1771.1l1.06.25 1.02.42.94.57.83.72.72.83.57.93.42 1 .26 1.08.08 1.07V1835h-2v-56.95l-.07-.82-.18-.77-.3-.72-.4-.67-.52-.6-.6-.5-.66-.4-.73-.3-.76-.2-.82-.06h-65.84v-2h65.92zm-184.03 1.9v-2h80.04v2z" stroke="#e81313" stroke-width=".05" fill="#e81313"/><path d="M1171.1 1773h-1.13l.1-1-.1-1h1.12z" fill="#e81313"/><path d="M1171.12 1773.03h-1.18l.1-1.02-.1-1.02h1.18zm-1.13-2l.1.98-.1.98h1.07v-1.95z" stroke="#e81313" stroke-width=".05" fill="#e81313"/><path d="M1360 1850.26l-4.63-14.26h9.27z" fill="#e81313"/><path d="M1360 1853.5l-6-18.5h12zm-3.26-16.5l3.26 10.03 3.26-10.03z" stroke="#e81313" stroke-width=".05" fill="#e81313"/><g><use xlink:href="#m" transform="matrix(1,0,0,1,1251.1063965240114,1757.1750184214995) translate(0.004999999999999005 19.777777777777782)"/></g><path d="M1414 1855c19.88 0 36 27.98 36 62.5 0 34.52-16.12 62.5-36 62.5h-108c-19.88 0-36-27.98-36-62.5 0-34.52 16.12-62.5 36-62.5z" stroke="#008573" stroke-width="3" fill="#fff"/><g><use xlink:href="#ah" transform="matrix(1,0,0,1,1275,1860) translate(25.282777777777774 35.74652777777778)"/><use xlink:href="#ai" transform="matrix(1,0,0,1,1275,1860) translate(24.62962962962964 62.41319444444445)"/><use xlink:href="#s" transform="matrix(1,0,0,1,1275,1860) translate(114.5679012345679 62.41319444444445)"/><use xlink:href="#I" transform="matrix(1,0,0,1,1275,1860) translate(36.54820987654321 89.07986111111111)"/></g><path d="M76.25 2086a6 6 0 0 1 6-6h255.5a6 6 0 0 1 6 6v70a6 6 0 0 1-6 6H82.25a6 6 0 0 1-6-6z" stroke="#008573" stroke-width="3" fill="#fff"/><g><use xlink:href="#aj" transform="matrix(1,0,0,1,88.25000000000003,2092) translate(0.6111111111111285 21.46527777777778)"/><use xlink:href="#ak" transform="matrix(1,0,0,1,88.25000000000003,2092) translate(125.05555555555556 21.46527777777778)"/><use xlink:href="#al" transform="matrix(1,0,0,1,88.25000000000003,2092) translate(75.33333333333334 48.13194444444444)"/><use xlink:href="#am" transform="matrix(1,0,0,1,88.25000000000003,2092) translate(95.8888888888889 48.13194444444444)"/></g><path d="M1032.5 2074v41a6 6 0 0 1-6 6H363.75" stroke="#008573" stroke-width="2" fill="none"/><path d="M1033.5 2074h-2v-.67l2-.68z" stroke="#008573" stroke-width=".05" fill="#008573"/><path d="M348.5 2121l14.25-4.64v9.28z" stroke="#008573" stroke-width="2" fill="#008573"/><path d="M258 2207.6c17.67 0 32 17.9 32 40s-14.33 40-32 40h-96c-17.67 0-32-17.9-32-40s14.33-40 32-40z" stroke="#008573" stroke-width="3" fill="#fff"/><g><use xlink:href="#an" transform="matrix(1,0,0,1,135,2212.6010498687665) translate(21.980308641975313 26.52777777777778)"/><use xlink:href="#ao" transform="matrix(1,0,0,1,135,2212.6010498687665) translate(114.44944444444445 26.52777777777778)"/><use xlink:href="#ap" transform="matrix(1,0,0,1,135,2212.6010498687665) translate(31.208703703703705 53.19444444444445)"/></g><path d="M210 2164.5v23.1" stroke="#008573" stroke-width="2" fill="none"/><path d="M211 2164.53h-2v-1.03h2z" stroke="#008573" stroke-width=".05" fill="#008573"/><path d="M210 2202.86l-4.63-14.26h9.26z" stroke="#008573" stroke-width="2" fill="#008573"/><defs><path fill="#008573" d="M33 0v-248h34V0H33" id="aq"/><path fill="#008573" d="M190 0L58-211 59 0H30v-248h39L202-35l-2-213h31V0h-41" id="ar"/><path fill="#008573" d="M63-220v92h138v28H63V0H30v-248h175v28H63" id="as"/><path fill="#008573" d="M140-251c81 0 123 46 123 126C263-46 219 4 140 4 59 4 17-45 17-125s42-126 123-126zm0 227c63 0 89-41 89-101s-29-99-89-99c-61 0-89 39-89 99S79-25 140-24" id="at"/><path fill="#008573" d="M233-177c-1 41-23 64-60 70L243 0h-38l-65-103H63V0H30v-248c88 3 205-21 203 71zM63-129c60-2 137 13 137-47 0-61-80-42-137-45v92" id="au"/><path fill="#008573" d="M240 0l2-218c-23 76-54 145-80 218h-23L58-218 59 0H30v-248h44l77 211c21-75 51-140 76-211h43V0h-30" id="av"/><path fill="#008573" d="M205 0l-28-72H64L36 0H1l101-248h38L239 0h-34zm-38-99l-47-123c-12 45-31 82-46 123h93" id="aw"/><path fill="#008573" d="M185-189c-5-48-123-54-124 2 14 75 158 14 163 119 3 78-121 87-175 55-17-10-28-26-33-46l33-7c5 56 141 63 141-1 0-78-155-14-162-118-5-82 145-84 179-34 5 7 8 16 11 25" id="ax"/><path fill="#008573" d="M30 0v-248h187v28H63v79h144v27H63v87h162V0H30" id="ay"/><g id="a"><use transform="matrix(0.06172839506172839,0,0,0.06172839506172839,0,0)" xlink:href="#aq"/><use transform="matrix(0.06172839506172839,0,0,0.06172839506172839,6.172839506172839,0)" xlink:href="#ar"/><use transform="matrix(0.06172839506172839,0,0,0.06172839506172839,22.160493827160494,0)" xlink:href="#as"/><use transform="matrix(0.06172839506172839,0,0,0.06172839506172839,35.67901234567901,0)" xlink:href="#at"/><use transform="matrix(0.06172839506172839,0,0,0.06172839506172839,52.96296296296296,0)" xlink:href="#au"/><use transform="matrix(0.06172839506172839,0,0,0.06172839506172839,68.95061728395062,0)" xlink:href="#av"/><use transform="matrix(0.06172839506172839,0,0,0.06172839506172839,87.4074074074074,0)" xlink:href="#aw"/><use transform="matrix(0.06172839506172839,0,0,0.06172839506172839,102.22222222222221,0)" xlink:href="#au"/><use transform="matrix(0.06172839506172839,0,0,0.06172839506172839,118.20987654320987,0)" xlink:href="#ax"/><use transform="matrix(0.06172839506172839,0,0,0.06172839506172839,133.02469135802468,0)" xlink:href="#ay"/></g><path fill="#008573" d="M160-131c35 5 61 23 61 61C221 17 115-2 30 0v-248c76 3 177-17 177 60 0 33-19 50-47 57zm-97-11c50-1 110 9 110-42 0-47-63-36-110-37v79zm0 115c55-2 124 14 124-45 0-56-70-42-124-44v89" id="az"/><g id="b"><use transform="matrix(0.06172839506172839,0,0,0.06172839506172839,0,0)" xlink:href="#ax"/><use transform="matrix(0.06172839506172839,0,0,0.06172839506172839,14.814814814814813,0)" xlink:href="#at"/><use transform="matrix(0.06172839506172839,0,0,0.06172839506172839,32.09876543209876,0)" xlink:href="#az"/><use transform="matrix(0.06172839506172839,0,0,0.06172839506172839,46.91358024691357,0)" xlink:href="#au"/><use transform="matrix(0.06172839506172839,0,0,0.06172839506172839,62.90123456790122,0)" xlink:href="#ay"/></g><path fill="#008573" d="M212-179c-10-28-35-45-73-45-59 0-87 40-87 99 0 60 29 101 89 101 43 0 62-24 78-52l27 14C228-24 195 4 139 4 59 4 22-46 18-125c-6-104 99-153 187-111 19 9 31 26 39 46" id="aA"/><path fill="#008573" d="M30-248c87 1 191-15 191 75 0 78-77 80-158 76V0H30v-248zm33 125c57 0 124 11 124-50 0-59-68-47-124-48v98" id="aB"/><path fill="#008573" d="M109-269c9-18 26-28 38-43h37v5l-55 38h-20zm31 18c81 0 123 46 123 126C263-46 219 4 140 4 59 4 17-45 17-125s42-126 123-126zm0 227c63 0 89-41 89-101s-29-99-89-99c-61 0-89 39-89 99S79-25 140-24" id="aC"/><g id="c"><use transform="matrix(0.06172839506172839,0,0,0.06172839506172839,0,0)" xlink:href="#aq"/><use transform="matrix(0.06172839506172839,0,0,0.06172839506172839,6.172839506172839,0)" xlink:href="#ar"/><use transform="matrix(0.06172839506172839,0,0,0.06172839506172839,22.160493827160494,0)" xlink:href="#ax"/><use transform="matrix(0.06172839506172839,0,0,0.06172839506172839,36.9753086419753,0)" xlink:href="#aA"/><use transform="matrix(0.06172839506172839,0,0,0.06172839506172839,52.962962962962955,0)" xlink:href="#au"/><use transform="matrix(0.06172839506172839,0,0,0.06172839506172839,68.9506172839506,0)" xlink:href="#aq"/><use transform="matrix(0.06172839506172839,0,0,0.06172839506172839,75.12345679012344,0)" xlink:href="#aB"/><use transform="matrix(0.06172839506172839,0,0,0.06172839506172839,89.93827160493825,0)" xlink:href="#aA"/><use transform="matrix(0.06172839506172839,0,0,0.06172839506172839,105.92592592592591,0)" xlink:href="#aq"/><use transform="matrix(0.06172839506172839,0,0,0.06172839506172839,112.09876543209874,0)" xlink:href="#aC"/><use transform="matrix(0.06172839506172839,0,0,0.06172839506172839,129.38271604938268,0)" xlink:href="#ar"/></g><path fill="#008573" d="M137 0h-34L2-248h35l83 218 83-218h36" id="aD"/><g id="d"><use transform="matrix(0.06172839506172839,0,0,0.06172839506172839,0,0)" xlink:href="#aD"/><use transform="matrix(0.06172839506172839,0,0,0.06172839506172839,14.814814814814813,0)" xlink:href="#ay"/><use transform="matrix(0.06172839506172839,0,0,0.06172839506172839,29.629629629629626,0)" xlink:href="#au"/><use transform="matrix(0.06172839506172839,0,0,0.06172839506172839,45.61728395061728,0)" xlink:href="#aq"/><use transform="matrix(0.06172839506172839,0,0,0.06172839506172839,51.79012345679012,0)" xlink:href="#as"/><use transform="matrix(0.06172839506172839,0,0,0.06172839506172839,65.30864197530863,0)" xlink:href="#aq"/><use transform="matrix(0.06172839506172839,0,0,0.06172839506172839,71.48148148148147,0)" xlink:href="#aA"/><use transform="matrix(0.06172839506172839,0,0,0.06172839506172839,87.46913580246913,0)" xlink:href="#aw"/><use transform="matrix(0.06172839506172839,0,0,0.06172839506172839,102.28395061728394,0)" xlink:href="#au"/></g><path fill="#008573" d="M96-269c9-18 26-28 38-43h37v5l-55 38H96zM205 0l-28-72H64L36 0H1l101-248h38L239 0h-34zm-38-99l-47-123c-12 45-31 82-46 123h93" id="aE"/><path fill="#008573" d="M143 4C61 4 22-44 18-125c-5-107 100-154 193-111 17 8 29 25 37 43l-32 9c-13-25-37-40-76-40-61 0-88 39-88 99 0 61 29 100 91 101 35 0 62-11 79-27v-45h-74v-28h105v86C228-13 192 4 143 4" id="aF"/><g id="e"><use transform="matrix(0.06172839506172839,0,0,0.06172839506172839,0,0)" xlink:href="#aB"/><use transform="matrix(0.06172839506172839,0,0,0.06172839506172839,14.814814814814813,0)" xlink:href="#aE"/><use transform="matrix(0.06172839506172839,0,0,0.06172839506172839,29.629629629629626,0)" xlink:href="#aF"/><use transform="matrix(0.06172839506172839,0,0,0.06172839506172839,46.913580246913575,0)" xlink:href="#aq"/><use transform="matrix(0.06172839506172839,0,0,0.06172839506172839,53.08641975308642,0)" xlink:href="#ar"/><use transform="matrix(0.06172839506172839,0,0,0.06172839506172839,69.07407407407408,0)" xlink:href="#aw"/></g><path fill="#008573" d="M266 0h-40l-56-210L115 0H75L2-248h35L96-30l15-64 43-154h32l59 218 59-218h35" id="aG"/><g id="f"><use transform="matrix(0.06172839506172839,0,0,0.06172839506172839,0,0)" xlink:href="#aG"/><use transform="matrix(0.06172839506172839,0,0,0.06172839506172839,20.925925925925924,0)" xlink:href="#ay"/><use transform="matrix(0.06172839506172839,0,0,0.06172839506172839,35.74074074074073,0)" xlink:href="#az"/></g><path fill="#ff8f8f" d="M238-95c0 69-44 99-111 99C63 4 22-25 22-93v-155h51v151c-1 38 19 59 55 60 90 1 49-130 58-211h52v153" id="aH"/><path fill="#ff8f8f" d="M169-182c-1-43-94-46-97-3 18 66 151 10 154 114 3 95-165 93-204 36-6-8-10-19-12-30l50-8c3 46 112 56 116 5-17-69-150-10-154-114-4-87 153-88 188-35 5 8 8 18 10 28" id="aI"/><path fill="#ff8f8f" d="M199 0l-22-63H83L61 0H9l90-248h61L250 0h-51zm-33-102l-36-108c-10 38-24 72-36 108h72" id="aJ"/><path fill="#ff8f8f" d="M240-174c0 40-23 61-54 70L253 0h-59l-57-94H76V0H24v-248c93 4 217-23 216 74zM76-134c48-2 112 12 112-38 0-48-66-32-112-35v73" id="aK"/><path fill="#ff8f8f" d="M24 0v-248h52V0H24" id="aL"/><path fill="#ff8f8f" d="M140-251c80 0 125 45 125 126S219 4 139 4C58 4 15-44 15-125s44-126 125-126zm-1 214c52 0 73-35 73-88 0-50-21-86-72-86-52 0-73 35-73 86s22 88 72 88" id="aM"/><g id="g"><use transform="matrix(0.08101851851851852,0,0,0.08101851851851852,0,0)" xlink:href="#aH"/><use transform="matrix(0.07716049382716049,0,0,0.07716049382716049,20.983796296296298,0)" xlink:href="#aI"/><use transform="matrix(0.07716049382716049,0,0,0.07716049382716049,39.50231481481482,0)" xlink:href="#aH"/><use transform="matrix(0.07716049382716049,0,0,0.07716049382716049,59.48688271604938,0)" xlink:href="#aJ"/><use transform="matrix(0.07716049382716049,0,0,0.07716049382716049,79.47145061728395,0)" xlink:href="#aK"/><use transform="matrix(0.07716049382716049,0,0,0.07716049382716049,99.45601851851852,0)" xlink:href="#aL"/><use transform="matrix(0.07716049382716049,0,0,0.07716049382716049,107.17206790123457,0)" xlink:href="#aM"/></g><path fill="#008573" d="M232-93c-1 65-40 97-104 97C67 4 28-28 28-90v-158h33c8 89-33 224 67 224 102 0 64-133 71-224h33v155" id="aN"/><path fill="#008573" d="M30 0v-248h33v221h125V0H30" id="aO"/><g id="h"><use transform="matrix(0.06172839506172839,0,0,0.06172839506172839,0,0)" xlink:href="#aB"/><use transform="matrix(0.06172839506172839,0,0,0.06172839506172839,14.814814814814813,0)" xlink:href="#aN"/><use transform="matrix(0.06172839506172839,0,0,0.06172839506172839,30.80246913580247,0)" xlink:href="#az"/><use transform="matrix(0.06172839506172839,0,0,0.06172839506172839,45.61728395061728,0)" xlink:href="#aO"/><use transform="matrix(0.06172839506172839,0,0,0.06172839506172839,57.962962962962955,0)" xlink:href="#aq"/><use transform="matrix(0.06172839506172839,0,0,0.06172839506172839,64.1358024691358,0)" xlink:href="#aA"/><use transform="matrix(0.06172839506172839,0,0,0.06172839506172839,80.12345679012346,0)" xlink:href="#aw"/><use transform="matrix(0.06172839506172839,0,0,0.06172839506172839,94.93827160493827,0)" xlink:href="#aA"/><use transform="matrix(0.06172839506172839,0,0,0.06172839506172839,110.92592592592592,0)" xlink:href="#aq"/><use transform="matrix(0.06172839506172839,0,0,0.06172839506172839,117.09876543209876,0)" xlink:href="#aC"/><use transform="matrix(0.06172839506172839,0,0,0.06172839506172839,134.3827160493827,0)" xlink:href="#ar"/></g><path fill="#008573" d="M30-248c118-7 216 8 213 122C240-48 200 0 122 0H30v-248zM63-27c89 8 146-16 146-99s-60-101-146-95v194" id="aP"/><g id="i"><use transform="matrix(0.06172839506172839,0,0,0.06172839506172839,0,0)" xlink:href="#aP"/><use transform="matrix(0.06172839506172839,0,0,0.06172839506172839,15.987654320987653,0)" xlink:href="#ay"/></g><path fill="#008573" d="M197 0v-115H63V0H30v-248h33v105h134v-105h34V0h-34" id="aQ"/><g id="j"><use transform="matrix(0.06172839506172839,0,0,0.06172839506172839,0,0)" xlink:href="#aQ"/><use transform="matrix(0.06172839506172839,0,0,0.06172839506172839,15.987654320987653,0)" xlink:href="#at"/><use transform="matrix(0.06172839506172839,0,0,0.06172839506172839,33.2716049382716,0)" xlink:href="#au"/><use transform="matrix(0.06172839506172839,0,0,0.06172839506172839,49.25925925925925,0)" xlink:href="#aw"/><use transform="matrix(0.06172839506172839,0,0,0.06172839506172839,64.07407407407406,0)" xlink:href="#au"/><use transform="matrix(0.06172839506172839,0,0,0.06172839506172839,80.06172839506172,0)" xlink:href="#aq"/><use transform="matrix(0.06172839506172839,0,0,0.06172839506172839,86.23456790123456,0)" xlink:href="#at"/><use transform="matrix(0.06172839506172839,0,0,0.06172839506172839,103.5185185185185,0)" xlink:href="#ax"/></g><path fill="#008573" d="M107 61C57 61 25 39 23-9c-2-65 71-58 78-115h30c1 64-76 54-76 114 0 30 21 42 52 43 32 0 53-17 56-46l32 2c-6 46-36 72-88 72zm26-251v35H99v-35h34" id="aR"/><path fill="#008573" d="M127-220V0H93v-220H8v-28h204v28h-85" id="aS"/><g id="k"><use transform="matrix(0.06172839506172839,0,0,0.06172839506172839,0,0)" xlink:href="#aR"/><use transform="matrix(0.06172839506172839,0,0,0.06172839506172839,13.518518518518517,0)" xlink:href="#ay"/><use transform="matrix(0.06172839506172839,0,0,0.06172839506172839,28.33333333333333,0)" xlink:href="#ax"/><use transform="matrix(0.06172839506172839,0,0,0.06172839506172839,43.14814814814814,0)" xlink:href="#aS"/><use transform="matrix(0.06172839506172839,0,0,0.06172839506172839,56.66666666666666,0)" xlink:href="#aN"/><use transform="matrix(0.06172839506172839,0,0,0.06172839506172839,72.65432098765432,0)" xlink:href="#aP"/><use transform="matrix(0.06172839506172839,0,0,0.06172839506172839,88.64197530864197,0)" xlink:href="#aq"/><use transform="matrix(0.06172839506172839,0,0,0.06172839506172839,94.81481481481481,0)" xlink:href="#aw"/><use transform="matrix(0.06172839506172839,0,0,0.06172839506172839,109.62962962962962,0)" xlink:href="#ar"/><use transform="matrix(0.06172839506172839,0,0,0.06172839506172839,125.61728395061728,0)" xlink:href="#aS"/><use transform="matrix(0.06172839506172839,0,0,0.06172839506172839,139.1358024691358,0)" xlink:href="#ay"/></g><path fill="#008573" d="M103-251c84 0 111 97 45 133-19 10-37 24-39 52H78c0-63 77-55 77-114 0-30-21-42-52-43-32 0-53 17-56 46l-32-2c7-45 34-72 88-72zM77 0v-35h34V0H77" id="aT"/><g id="l"><use transform="matrix(0.06172839506172839,0,0,0.06172839506172839,0,0)" xlink:href="#av"/><use transform="matrix(0.06172839506172839,0,0,0.06172839506172839,18.456790123456788,0)" xlink:href="#aw"/><use transform="matrix(0.06172839506172839,0,0,0.06172839506172839,31.604938271604933,0)" xlink:href="#aS"/><use transform="matrix(0.06172839506172839,0,0,0.06172839506172839,45.12345679012345,0)" xlink:href="#au"/><use transform="matrix(0.06172839506172839,0,0,0.06172839506172839,61.1111111111111,0)" xlink:href="#aq"/><use transform="matrix(0.06172839506172839,0,0,0.06172839506172839,67.28395061728394,0)" xlink:href="#aA"/><use transform="matrix(0.06172839506172839,0,0,0.06172839506172839,83.2716049382716,0)" xlink:href="#aN"/><use transform="matrix(0.06172839506172839,0,0,0.06172839506172839,99.25925925925925,0)" xlink:href="#aO"/><use transform="matrix(0.06172839506172839,0,0,0.06172839506172839,111.60493827160494,0)" xlink:href="#aw"/><use transform="matrix(0.06172839506172839,0,0,0.06172839506172839,126.41975308641975,0)" xlink:href="#aP"/><use transform="matrix(0.06172839506172839,0,0,0.06172839506172839,142.4074074074074,0)" xlink:href="#at"/><use transform="matrix(0.06172839506172839,0,0,0.06172839506172839,159.69135802469134,0)" xlink:href="#aT"/></g><path fill="#e81313" d="M175 0L67-191c6 58 2 128 3 191H24v-248h59L193-55c-6-58-2-129-3-193h46V0h-61" id="aU"/><path fill="#e81313" d="M140-251c80 0 125 45 125 126S219 4 139 4C58 4 15-44 15-125s44-126 125-126zm-1 214c52 0 73-35 73-88 0-50-21-86-72-86-52 0-73 35-73 86s22 88 72 88" id="aV"/><g id="m"><use transform="matrix(0.06867283950617285,0,0,0.06867283950617285,0,0)" xlink:href="#aU"/><use transform="matrix(0.06867283950617285,0,0,0.06867283950617285,17.78626543209877,0)" xlink:href="#aV"/></g><path fill="#008a0e" d="M169-182c-1-43-94-46-97-3 18 66 151 10 154 114 3 95-165 93-204 36-6-8-10-19-12-30l50-8c3 46 112 56 116 5-17-69-150-10-154-114-4-87 153-88 188-35 5 8 8 18 10 28" id="aW"/><path fill="#008a0e" d="M18-269v-5l45-45h45v8l-60 42H18zM24 0v-248h52V0H24" id="aX"/><g id="n"><use transform="matrix(0.06867283950617285,0,0,0.06867283950617285,0,0)" xlink:href="#aW"/><use transform="matrix(0.06867283950617285,0,0,0.06867283950617285,16.481481481481485,0)" xlink:href="#aX"/></g><g id="o"><use transform="matrix(0.06172839506172839,0,0,0.06172839506172839,0,0)" xlink:href="#ax"/><use transform="matrix(0.06172839506172839,0,0,0.06172839506172839,14.814814814814813,0)" xlink:href="#ay"/><use transform="matrix(0.06172839506172839,0,0,0.06172839506172839,29.629629629629626,0)" xlink:href="#aO"/><use transform="matrix(0.06172839506172839,0,0,0.06172839506172839,41.9753086419753,0)" xlink:href="#ay"/><use transform="matrix(0.06172839506172839,0,0,0.06172839506172839,56.79012345679011,0)" xlink:href="#aA"/><use transform="matrix(0.06172839506172839,0,0,0.06172839506172839,72.77777777777777,0)" xlink:href="#aA"/><use transform="matrix(0.06172839506172839,0,0,0.06172839506172839,88.76543209876543,0)" xlink:href="#aq"/><use transform="matrix(0.06172839506172839,0,0,0.06172839506172839,94.93827160493827,0)" xlink:href="#at"/><use transform="matrix(0.06172839506172839,0,0,0.06172839506172839,112.22222222222221,0)" xlink:href="#ar"/><use transform="matrix(0.06172839506172839,0,0,0.06172839506172839,128.20987654320987,0)" xlink:href="#aw"/><use transform="matrix(0.06172839506172839,0,0,0.06172839506172839,143.02469135802468,0)" xlink:href="#au"/></g><g id="p"><use transform="matrix(0.06172839506172839,0,0,0.06172839506172839,0,0)" xlink:href="#av"/><use transform="matrix(0.06172839506172839,0,0,0.06172839506172839,18.456790123456788,0)" xlink:href="#aw"/><use transform="matrix(0.06172839506172839,0,0,0.06172839506172839,31.604938271604933,0)" xlink:href="#aS"/><use transform="matrix(0.06172839506172839,0,0,0.06172839506172839,45.12345679012345,0)" xlink:href="#ay"/><use transform="matrix(0.06172839506172839,0,0,0.06172839506172839,59.938271604938265,0)" xlink:href="#au"/><use transform="matrix(0.06172839506172839,0,0,0.06172839506172839,75.92592592592592,0)" xlink:href="#aq"/><use transform="matrix(0.06172839506172839,0,0,0.06172839506172839,82.09876543209876,0)" xlink:href="#aw"/><use transform="matrix(0.06172839506172839,0,0,0.06172839506172839,96.91358024691357,0)" xlink:href="#ax"/></g><g id="q"><use transform="matrix(0.06172839506172839,0,0,0.06172839506172839,0,0)" xlink:href="#aw"/><use transform="matrix(0.06172839506172839,0,0,0.06172839506172839,14.814814814814813,0)" xlink:href="#ax"/><use transform="matrix(0.06172839506172839,0,0,0.06172839506172839,29.629629629629626,0)" xlink:href="#aq"/><use transform="matrix(0.06172839506172839,0,0,0.06172839506172839,35.80246913580247,0)" xlink:href="#aF"/><use transform="matrix(0.06172839506172839,0,0,0.06172839506172839,53.08641975308642,0)" xlink:href="#ar"/><use transform="matrix(0.06172839506172839,0,0,0.06172839506172839,69.07407407407408,0)" xlink:href="#aw"/><use transform="matrix(0.06172839506172839,0,0,0.06172839506172839,83.88888888888889,0)" xlink:href="#au"/></g><g id="r"><use transform="matrix(0.06172839506172839,0,0,0.06172839506172839,0,0)" xlink:href="#aQ"/><use transform="matrix(0.06172839506172839,0,0,0.06172839506172839,15.987654320987653,0)" xlink:href="#at"/><use transform="matrix(0.06172839506172839,0,0,0.06172839506172839,33.2716049382716,0)" xlink:href="#au"/><use transform="matrix(0.06172839506172839,0,0,0.06172839506172839,49.25925925925925,0)" xlink:href="#aw"/><use transform="matrix(0.06172839506172839,0,0,0.06172839506172839,64.07407407407406,0)" xlink:href="#au"/><use transform="matrix(0.06172839506172839,0,0,0.06172839506172839,80.06172839506172,0)" xlink:href="#aq"/><use transform="matrix(0.06172839506172839,0,0,0.06172839506172839,86.23456790123456,0)" xlink:href="#at"/></g><g id="s"><use transform="matrix(0.06172839506172839,0,0,0.06172839506172839,0,0)" xlink:href="#aP"/><use transform="matrix(0.06172839506172839,0,0,0.06172839506172839,15.987654320987653,0)" xlink:href="#ay"/></g><g id="t"><use transform="matrix(0.06172839506172839,0,0,0.06172839506172839,0,0)" xlink:href="#aq"/><use transform="matrix(0.06172839506172839,0,0,0.06172839506172839,6.172839506172839,0)" xlink:href="#ar"/><use transform="matrix(0.06172839506172839,0,0,0.06172839506172839,22.160493827160494,0)" xlink:href="#ax"/><use transform="matrix(0.06172839506172839,0,0,0.06172839506172839,36.9753086419753,0)" xlink:href="#aA"/><use transform="matrix(0.06172839506172839,0,0,0.06172839506172839,52.962962962962955,0)" xlink:href="#au"/><use transform="matrix(0.06172839506172839,0,0,0.06172839506172839,68.9506172839506,0)" xlink:href="#aq"/><use transform="matrix(0.06172839506172839,0,0,0.06172839506172839,75.12345679012344,0)" xlink:href="#aB"/><use transform="matrix(0.06172839506172839,0,0,0.06172839506172839,89.93827160493825,0)" xlink:href="#aA"/><use transform="matrix(0.06172839506172839,0,0,0.06172839506172839,105.92592592592591,0)" xlink:href="#aq"/><use transform="matrix(0.06172839506172839,0,0,0.06172839506172839,112.09876543209874,0)" xlink:href="#aC"/><use transform="matrix(0.06172839506172839,0,0,0.06172839506172839,129.38271604938268,0)" xlink:href="#ar"/></g><g id="u"><use transform="matrix(0.06172839506172839,0,0,0.06172839506172839,0,0)" xlink:href="#ay"/><use transform="matrix(0.06172839506172839,0,0,0.06172839506172839,14.814814814814813,0)" xlink:href="#ar"/></g><g id="v"><use transform="matrix(0.06172839506172839,0,0,0.06172839506172839,0,0)" xlink:href="#ax"/><use transform="matrix(0.06172839506172839,0,0,0.06172839506172839,14.814814814814813,0)" xlink:href="#aq"/><use transform="matrix(0.06172839506172839,0,0,0.06172839506172839,20.98765432098765,0)" xlink:href="#ax"/><use transform="matrix(0.06172839506172839,0,0,0.06172839506172839,35.80246913580247,0)" xlink:href="#aS"/><use transform="matrix(0.06172839506172839,0,0,0.06172839506172839,49.32098765432099,0)" xlink:href="#ay"/><use transform="matrix(0.06172839506172839,0,0,0.06172839506172839,64.1358024691358,0)" xlink:href="#av"/><use transform="matrix(0.06172839506172839,0,0,0.06172839506172839,82.59259259259258,0)" xlink:href="#aw"/></g><g id="w"><use transform="matrix(0.06172839506172839,0,0,0.06172839506172839,0,0)" xlink:href="#aA"/><use transform="matrix(0.06172839506172839,0,0,0.06172839506172839,15.987654320987653,0)" xlink:href="#at"/><use transform="matrix(0.06172839506172839,0,0,0.06172839506172839,33.2716049382716,0)" xlink:href="#ar"/><use transform="matrix(0.06172839506172839,0,0,0.06172839506172839,49.25925925925925,0)" xlink:href="#as"/><use transform="matrix(0.06172839506172839,0,0,0.06172839506172839,62.77777777777777,0)" xlink:href="#aq"/><use transform="matrix(0.06172839506172839,0,0,0.06172839506172839,68.9506172839506,0)" xlink:href="#au"/><use transform="matrix(0.06172839506172839,0,0,0.06172839506172839,84.93827160493827,0)" xlink:href="#av"/><use transform="matrix(0.06172839506172839,0,0,0.06172839506172839,103.39506172839505,0)" xlink:href="#aw"/><use transform="matrix(0.06172839506172839,0,0,0.06172839506172839,118.20987654320986,0)" xlink:href="#au"/></g><g id="x"><use transform="matrix(0.06172839506172839,0,0,0.06172839506172839,0,0)" xlink:href="#aq"/><use transform="matrix(0.06172839506172839,0,0,0.06172839506172839,6.172839506172839,0)" xlink:href="#ar"/><use transform="matrix(0.06172839506172839,0,0,0.06172839506172839,22.160493827160494,0)" xlink:href="#ax"/><use transform="matrix(0.06172839506172839,0,0,0.06172839506172839,36.9753086419753,0)" xlink:href="#aA"/><use transform="matrix(0.06172839506172839,0,0,0.06172839506172839,52.962962962962955,0)" xlink:href="#au"/><use transform="matrix(0.06172839506172839,0,0,0.06172839506172839,68.9506172839506,0)" xlink:href="#aq"/><use transform="matrix(0.06172839506172839,0,0,0.06172839506172839,75.12345679012344,0)" xlink:href="#aB"/><use transform="matrix(0.06172839506172839,0,0,0.06172839506172839,89.93827160493825,0)" xlink:href="#aA"/><use transform="matrix(0.06172839506172839,0,0,0.06172839506172839,105.92592592592591,0)" xlink:href="#aq"/><use transform="matrix(0.06172839506172839,0,0,0.06172839506172839,112.09876543209874,0)" xlink:href="#aC"/><use transform="matrix(0.06172839506172839,0,0,0.06172839506172839,129.38271604938268,0)" xlink:href="#ar"/></g><g id="y"><use transform="matrix(0.06172839506172839,0,0,0.06172839506172839,0,0)" xlink:href="#aR"/><use transform="matrix(0.06172839506172839,0,0,0.06172839506172839,13.518518518518517,0)" xlink:href="#aq"/><use transform="matrix(0.06172839506172839,0,0,0.06172839506172839,19.691358024691358,0)" xlink:href="#ar"/><use transform="matrix(0.06172839506172839,0,0,0.06172839506172839,35.67901234567901,0)" xlink:href="#ax"/><use transform="matrix(0.06172839506172839,0,0,0.06172839506172839,50.49382716049382,0)" xlink:href="#aA"/><use transform="matrix(0.06172839506172839,0,0,0.06172839506172839,66.48148148148148,0)" xlink:href="#au"/><use transform="matrix(0.06172839506172839,0,0,0.06172839506172839,82.46913580246914,0)" xlink:href="#aq"/><use transform="matrix(0.06172839506172839,0,0,0.06172839506172839,88.64197530864197,0)" xlink:href="#aB"/><use transform="matrix(0.06172839506172839,0,0,0.06172839506172839,103.45679012345678,0)" xlink:href="#aA"/><use transform="matrix(0.06172839506172839,0,0,0.06172839506172839,119.44444444444444,0)" xlink:href="#aq"/><use transform="matrix(0.06172839506172839,0,0,0.06172839506172839,125.61728395061728,0)" xlink:href="#aC"/><use transform="matrix(0.06172839506172839,0,0,0.06172839506172839,142.9012345679012,0)" xlink:href="#ar"/></g><g id="z"><use transform="matrix(0.06172839506172839,0,0,0.06172839506172839,0,0)" xlink:href="#ay"/><use transform="matrix(0.06172839506172839,0,0,0.06172839506172839,14.814814814814813,0)" xlink:href="#ar"/></g><g id="A"><use transform="matrix(0.06172839506172839,0,0,0.06172839506172839,0,0)" xlink:href="#ay"/><use transform="matrix(0.06172839506172839,0,0,0.06172839506172839,14.814814814814813,0)" xlink:href="#aO"/></g><g id="B"><use transform="matrix(0.06172839506172839,0,0,0.06172839506172839,0,0)" xlink:href="#aS"/><use transform="matrix(0.06172839506172839,0,0,0.06172839506172839,13.518518518518517,0)" xlink:href="#aq"/><use transform="matrix(0.06172839506172839,0,0,0.06172839506172839,19.691358024691358,0)" xlink:href="#ay"/><use transform="matrix(0.06172839506172839,0,0,0.06172839506172839,34.50617283950617,0)" xlink:href="#av"/><use transform="matrix(0.06172839506172839,0,0,0.06172839506172839,52.96296296296296,0)" xlink:href="#aB"/><use transform="matrix(0.06172839506172839,0,0,0.06172839506172839,67.77777777777777,0)" xlink:href="#at"/></g><g id="C"><use transform="matrix(0.06172839506172839,0,0,0.06172839506172839,0,0)" xlink:href="#aw"/><use transform="matrix(0.06172839506172839,0,0,0.06172839506172839,14.814814814814813,0)" xlink:href="#ax"/><use transform="matrix(0.06172839506172839,0,0,0.06172839506172839,29.629629629629626,0)" xlink:href="#aq"/><use transform="matrix(0.06172839506172839,0,0,0.06172839506172839,35.80246913580247,0)" xlink:href="#aF"/><use transform="matrix(0.06172839506172839,0,0,0.06172839506172839,53.08641975308642,0)" xlink:href="#ar"/><use transform="matrix(0.06172839506172839,0,0,0.06172839506172839,69.07407407407408,0)" xlink:href="#aw"/><use transform="matrix(0.06172839506172839,0,0,0.06172839506172839,83.88888888888889,0)" xlink:href="#aP"/><use transform="matrix(0.06172839506172839,0,0,0.06172839506172839,99.87654320987654,0)" xlink:href="#at"/><use transform="matrix(0.06172839506172839,0,0,0.06172839506172839,117.1604938271605,0)" xlink:href="#aT"/></g><g id="D"><use transform="matrix(0.06172839506172839,0,0,0.06172839506172839,0,0)" xlink:href="#au"/><use transform="matrix(0.06172839506172839,0,0,0.06172839506172839,15.987654320987653,0)" xlink:href="#ay"/><use transform="matrix(0.06172839506172839,0,0,0.06172839506172839,30.80246913580247,0)" xlink:href="#aF"/><use transform="matrix(0.06172839506172839,0,0,0.06172839506172839,48.08641975308642,0)" xlink:href="#aq"/><use transform="matrix(0.06172839506172839,0,0,0.06172839506172839,54.25925925925926,0)" xlink:href="#ax"/><use transform="matrix(0.06172839506172839,0,0,0.06172839506172839,69.07407407407408,0)" xlink:href="#aS"/><use transform="matrix(0.06172839506172839,0,0,0.06172839506172839,82.5925925925926,0)" xlink:href="#au"/><use transform="matrix(0.06172839506172839,0,0,0.06172839506172839,98.58024691358025,0)" xlink:href="#aw"/><use transform="matrix(0.06172839506172839,0,0,0.06172839506172839,113.39506172839506,0)" xlink:href="#au"/></g><g id="E"><use transform="matrix(0.06172839506172839,0,0,0.06172839506172839,0,0)" xlink:href="#av"/><use transform="matrix(0.06172839506172839,0,0,0.06172839506172839,18.456790123456788,0)" xlink:href="#aw"/><use transform="matrix(0.06172839506172839,0,0,0.06172839506172839,31.604938271604933,0)" xlink:href="#aS"/><use transform="matrix(0.06172839506172839,0,0,0.06172839506172839,45.12345679012345,0)" xlink:href="#ay"/><use transform="matrix(0.06172839506172839,0,0,0.06172839506172839,59.938271604938265,0)" xlink:href="#au"/><use transform="matrix(0.06172839506172839,0,0,0.06172839506172839,75.92592592592592,0)" xlink:href="#aq"/><use transform="matrix(0.06172839506172839,0,0,0.06172839506172839,82.09876543209876,0)" xlink:href="#aw"/><use transform="matrix(0.06172839506172839,0,0,0.06172839506172839,96.91358024691357,0)" xlink:href="#ax"/></g><path fill="#008573" d="M209 0H11v-25l151-195H24v-28h176v25L50-27h159V0" id="aY"/><g id="F"><use transform="matrix(0.06172839506172839,0,0,0.06172839506172839,0,0)" xlink:href="#aA"/><use transform="matrix(0.06172839506172839,0,0,0.06172839506172839,15.987654320987653,0)" xlink:href="#at"/><use transform="matrix(0.06172839506172839,0,0,0.06172839506172839,33.2716049382716,0)" xlink:href="#ar"/><use transform="matrix(0.06172839506172839,0,0,0.06172839506172839,49.25925925925925,0)" xlink:href="#aS"/><use transform="matrix(0.06172839506172839,0,0,0.06172839506172839,61.11111111111111,0)" xlink:href="#aw"/><use transform="matrix(0.06172839506172839,0,0,0.06172839506172839,75.92592592592592,0)" xlink:href="#az"/><use transform="matrix(0.06172839506172839,0,0,0.06172839506172839,90.74074074074073,0)" xlink:href="#aq"/><use transform="matrix(0.06172839506172839,0,0,0.06172839506172839,96.91358024691357,0)" xlink:href="#aO"/><use transform="matrix(0.06172839506172839,0,0,0.06172839506172839,109.25925925925925,0)" xlink:href="#aq"/><use transform="matrix(0.06172839506172839,0,0,0.06172839506172839,115.43209876543209,0)" xlink:href="#aY"/><use transform="matrix(0.06172839506172839,0,0,0.06172839506172839,128.9506172839506,0)" xlink:href="#aw"/><use transform="matrix(0.06172839506172839,0,0,0.06172839506172839,143.76543209876542,0)" xlink:href="#au"/></g><g id="G"><use transform="matrix(0.06172839506172839,0,0,0.06172839506172839,0,0)" xlink:href="#aq"/><use transform="matrix(0.06172839506172839,0,0,0.06172839506172839,6.172839506172839,0)" xlink:href="#ar"/><use transform="matrix(0.06172839506172839,0,0,0.06172839506172839,22.160493827160494,0)" xlink:href="#ax"/><use transform="matrix(0.06172839506172839,0,0,0.06172839506172839,36.9753086419753,0)" xlink:href="#aA"/><use transform="matrix(0.06172839506172839,0,0,0.06172839506172839,52.962962962962955,0)" xlink:href="#au"/><use transform="matrix(0.06172839506172839,0,0,0.06172839506172839,68.9506172839506,0)" xlink:href="#aq"/><use transform="matrix(0.06172839506172839,0,0,0.06172839506172839,75.12345679012344,0)" xlink:href="#aS"/><use transform="matrix(0.06172839506172839,0,0,0.06172839506172839,88.20987654320986,0)" xlink:href="#at"/><use transform="matrix(0.06172839506172839,0,0,0.06172839506172839,105.49382716049381,0)" xlink:href="#ax"/></g><g id="H"><use transform="matrix(0.06172839506172839,0,0,0.06172839506172839,0,0)" xlink:href="#aB"/><use transform="matrix(0.06172839506172839,0,0,0.06172839506172839,14.814814814814813,0)" xlink:href="#at"/><use transform="matrix(0.06172839506172839,0,0,0.06172839506172839,32.09876543209876,0)" xlink:href="#au"/></g><g id="I"><use transform="matrix(0.06172839506172839,0,0,0.06172839506172839,0,0)" xlink:href="#av"/><use transform="matrix(0.06172839506172839,0,0,0.06172839506172839,18.456790123456788,0)" xlink:href="#aw"/><use transform="matrix(0.06172839506172839,0,0,0.06172839506172839,31.604938271604933,0)" xlink:href="#aS"/><use transform="matrix(0.06172839506172839,0,0,0.06172839506172839,45.12345679012345,0)" xlink:href="#ay"/><use transform="matrix(0.06172839506172839,0,0,0.06172839506172839,59.938271604938265,0)" xlink:href="#au"/><use transform="matrix(0.06172839506172839,0,0,0.06172839506172839,75.92592592592592,0)" xlink:href="#aq"/><use transform="matrix(0.06172839506172839,0,0,0.06172839506172839,82.09876543209876,0)" xlink:href="#aw"/></g><path fill="#ff8f8f" d="M195 0l-88-114-31 24V0H24v-248h52v113l112-113h60L142-143 257 0h-62" id="aZ"/><path fill="#ff8f8f" d="M24-248c120-7 223 5 221 122C244-46 201 0 124 0H24v-248zM76-40c74 7 117-18 117-86 0-67-45-88-117-82v168" id="ba"/><path fill="#ff8f8f" d="M24 0v-248h195v40H76v63h132v40H76v65h150V0H24" id="bb"/><path fill="#ff8f8f" d="M182 0l-62-99L58 0H3l86-130-79-118h55l55 88 55-88h55l-75 118L237 0h-55" id="bc"/><g id="J"><use transform="matrix(0.08101851851851852,0,0,0.08101851851851852,0,0)" xlink:href="#aZ"/><use transform="matrix(0.08101851851851852,0,0,0.08101851851851852,20.983796296296298,0)" xlink:href="#aJ"/><use transform="matrix(0.08101851851851852,0,0,0.08101851851851852,41.967592592592595,0)" xlink:href="#aK"/><use transform="matrix(0.08101851851851852,0,0,0.08101851851851852,62.9513888888889,0)" xlink:href="#ba"/><use transform="matrix(0.08101851851851852,0,0,0.08101851851851852,83.93518518518519,0)" xlink:href="#bb"/><use transform="matrix(0.08101851851851852,0,0,0.08101851851851852,103.37962962962963,0)" xlink:href="#bc"/></g><g id="K"><use transform="matrix(0.06172839506172839,0,0,0.06172839506172839,0,0)" xlink:href="#aD"/><use transform="matrix(0.06172839506172839,0,0,0.06172839506172839,14.814814814814813,0)" xlink:href="#ay"/><use transform="matrix(0.06172839506172839,0,0,0.06172839506172839,29.629629629629626,0)" xlink:href="#au"/><use transform="matrix(0.06172839506172839,0,0,0.06172839506172839,45.61728395061728,0)" xlink:href="#aq"/><use transform="matrix(0.06172839506172839,0,0,0.06172839506172839,51.79012345679012,0)" xlink:href="#as"/><use transform="matrix(0.06172839506172839,0,0,0.06172839506172839,65.30864197530863,0)" xlink:href="#aq"/><use transform="matrix(0.06172839506172839,0,0,0.06172839506172839,71.48148148148147,0)" xlink:href="#aA"/><use transform="matrix(0.06172839506172839,0,0,0.06172839506172839,87.46913580246913,0)" xlink:href="#aw"/><use transform="matrix(0.06172839506172839,0,0,0.06172839506172839,102.28395061728394,0)" xlink:href="#au"/></g><g id="L"><use transform="matrix(0.06172839506172839,0,0,0.06172839506172839,0,0)" xlink:href="#ay"/><use transform="matrix(0.06172839506172839,0,0,0.06172839506172839,14.814814814814813,0)" xlink:href="#ax"/><use transform="matrix(0.06172839506172839,0,0,0.06172839506172839,29.629629629629626,0)" xlink:href="#aS"/><use transform="matrix(0.06172839506172839,0,0,0.06172839506172839,43.148148148148145,0)" xlink:href="#aN"/><use transform="matrix(0.06172839506172839,0,0,0.06172839506172839,59.1358024691358,0)" xlink:href="#aP"/><use transform="matrix(0.06172839506172839,0,0,0.06172839506172839,75.12345679012346,0)" xlink:href="#aq"/><use transform="matrix(0.06172839506172839,0,0,0.06172839506172839,81.29629629629629,0)" xlink:href="#aw"/><use transform="matrix(0.06172839506172839,0,0,0.06172839506172839,96.1111111111111,0)" xlink:href="#ar"/><use transform="matrix(0.06172839506172839,0,0,0.06172839506172839,112.09876543209876,0)" xlink:href="#aS"/><use transform="matrix(0.06172839506172839,0,0,0.06172839506172839,125.61728395061728,0)" xlink:href="#ay"/><use transform="matrix(0.06172839506172839,0,0,0.06172839506172839,140.4320987654321,0)" xlink:href="#ax"/></g><g id="M"><use transform="matrix(0.06172839506172839,0,0,0.06172839506172839,0,0)" xlink:href="#av"/><use transform="matrix(0.06172839506172839,0,0,0.06172839506172839,18.456790123456788,0)" xlink:href="#aw"/><use transform="matrix(0.06172839506172839,0,0,0.06172839506172839,31.604938271604933,0)" xlink:href="#aS"/><use transform="matrix(0.06172839506172839,0,0,0.06172839506172839,45.12345679012345,0)" xlink:href="#au"/><use transform="matrix(0.06172839506172839,0,0,0.06172839506172839,61.1111111111111,0)" xlink:href="#aq"/><use transform="matrix(0.06172839506172839,0,0,0.06172839506172839,67.28395061728394,0)" xlink:href="#aA"/><use transform="matrix(0.06172839506172839,0,0,0.06172839506172839,83.2716049382716,0)" xlink:href="#aN"/><use transform="matrix(0.06172839506172839,0,0,0.06172839506172839,99.25925925925925,0)" xlink:href="#aO"/><use transform="matrix(0.06172839506172839,0,0,0.06172839506172839,111.60493827160494,0)" xlink:href="#aw"/><use transform="matrix(0.06172839506172839,0,0,0.06172839506172839,126.41975308641975,0)" xlink:href="#aP"/><use transform="matrix(0.06172839506172839,0,0,0.06172839506172839,142.4074074074074,0)" xlink:href="#at"/><use transform="matrix(0.06172839506172839,0,0,0.06172839506172839,159.69135802469134,0)" xlink:href="#ax"/></g><g id="N"><use transform="matrix(0.06172839506172839,0,0,0.06172839506172839,0,0)" xlink:href="#ar"/><use transform="matrix(0.06172839506172839,0,0,0.06172839506172839,15.987654320987653,0)" xlink:href="#at"/><use transform="matrix(0.06172839506172839,0,0,0.06172839506172839,33.2716049382716,0)" xlink:href="#aS"/><use transform="matrix(0.06172839506172839,0,0,0.06172839506172839,46.79012345679012,0)" xlink:href="#aq"/><use transform="matrix(0.06172839506172839,0,0,0.06172839506172839,52.96296296296296,0)" xlink:href="#as"/><use transform="matrix(0.06172839506172839,0,0,0.06172839506172839,66.48148148148148,0)" xlink:href="#aq"/><use transform="matrix(0.06172839506172839,0,0,0.06172839506172839,72.65432098765432,0)" xlink:href="#aA"/><use transform="matrix(0.06172839506172839,0,0,0.06172839506172839,88.64197530864197,0)" xlink:href="#aw"/><use transform="matrix(0.06172839506172839,0,0,0.06172839506172839,103.45679012345678,0)" xlink:href="#au"/></g><g id="O"><use transform="matrix(0.06172839506172839,0,0,0.06172839506172839,0,0)" xlink:href="#aq"/><use transform="matrix(0.06172839506172839,0,0,0.06172839506172839,6.172839506172839,0)" xlink:href="#ar"/><use transform="matrix(0.06172839506172839,0,0,0.06172839506172839,22.160493827160494,0)" xlink:href="#aA"/><use transform="matrix(0.06172839506172839,0,0,0.06172839506172839,38.148148148148145,0)" xlink:href="#au"/><use transform="matrix(0.06172839506172839,0,0,0.06172839506172839,54.1358024691358,0)" xlink:href="#aq"/><use transform="matrix(0.06172839506172839,0,0,0.06172839506172839,60.30864197530864,0)" xlink:href="#aB"/><use transform="matrix(0.06172839506172839,0,0,0.06172839506172839,75.12345679012346,0)" xlink:href="#aA"/><use transform="matrix(0.06172839506172839,0,0,0.06172839506172839,91.11111111111111,0)" xlink:href="#aq"/><use transform="matrix(0.06172839506172839,0,0,0.06172839506172839,97.28395061728395,0)" xlink:href="#aC"/><use transform="matrix(0.06172839506172839,0,0,0.06172839506172839,114.5679012345679,0)" xlink:href="#ar"/></g><g id="P"><use transform="matrix(0.06172839506172839,0,0,0.06172839506172839,0,0)" xlink:href="#as"/><use transform="matrix(0.06172839506172839,0,0,0.06172839506172839,13.518518518518517,0)" xlink:href="#aN"/><use transform="matrix(0.06172839506172839,0,0,0.06172839506172839,29.50617283950617,0)" xlink:href="#ay"/><use transform="matrix(0.06172839506172839,0,0,0.06172839506172839,44.32098765432099,0)" xlink:href="#au"/><use transform="matrix(0.06172839506172839,0,0,0.06172839506172839,60.30864197530864,0)" xlink:href="#aw"/></g><g id="Q"><use transform="matrix(0.06172839506172839,0,0,0.06172839506172839,0,0)" xlink:href="#aQ"/><use transform="matrix(0.06172839506172839,0,0,0.06172839506172839,15.987654320987653,0)" xlink:href="#at"/><use transform="matrix(0.06172839506172839,0,0,0.06172839506172839,33.2716049382716,0)" xlink:href="#au"/><use transform="matrix(0.06172839506172839,0,0,0.06172839506172839,49.25925925925925,0)" xlink:href="#aw"/></g><g id="R"><use transform="matrix(0.06172839506172839,0,0,0.06172839506172839,0,0)" xlink:href="#ay"/><use transform="matrix(0.06172839506172839,0,0,0.06172839506172839,14.814814814814813,0)" xlink:href="#ax"/><use transform="matrix(0.06172839506172839,0,0,0.06172839506172839,29.629629629629626,0)" xlink:href="#aS"/><use transform="matrix(0.06172839506172839,0,0,0.06172839506172839,41.481481481481474,0)" xlink:href="#aw"/><use transform="matrix(0.06172839506172839,0,0,0.06172839506172839,56.29629629629629,0)" xlink:href="#aP"/><use transform="matrix(0.06172839506172839,0,0,0.06172839506172839,72.28395061728395,0)" xlink:href="#at"/></g><g id="S"><use transform="matrix(0.06172839506172839,0,0,0.06172839506172839,0,0)" xlink:href="#av"/><use transform="matrix(0.06172839506172839,0,0,0.06172839506172839,18.456790123456788,0)" xlink:href="#aw"/><use transform="matrix(0.06172839506172839,0,0,0.06172839506172839,31.604938271604933,0)" xlink:href="#aS"/><use transform="matrix(0.06172839506172839,0,0,0.06172839506172839,45.12345679012345,0)" xlink:href="#au"/><use transform="matrix(0.06172839506172839,0,0,0.06172839506172839,61.1111111111111,0)" xlink:href="#aq"/><use transform="matrix(0.06172839506172839,0,0,0.06172839506172839,67.28395061728394,0)" xlink:href="#aA"/><use transform="matrix(0.06172839506172839,0,0,0.06172839506172839,83.2716049382716,0)" xlink:href="#aN"/><use transform="matrix(0.06172839506172839,0,0,0.06172839506172839,99.25925925925925,0)" xlink:href="#aO"/><use transform="matrix(0.06172839506172839,0,0,0.06172839506172839,111.60493827160494,0)" xlink:href="#aw"/><use transform="matrix(0.06172839506172839,0,0,0.06172839506172839,126.41975308641975,0)" xlink:href="#aA"/><use transform="matrix(0.06172839506172839,0,0,0.06172839506172839,142.4074074074074,0)" xlink:href="#aq"/><use transform="matrix(0.06172839506172839,0,0,0.06172839506172839,148.58024691358023,0)" xlink:href="#aC"/><use transform="matrix(0.06172839506172839,0,0,0.06172839506172839,165.86419753086417,0)" xlink:href="#ar"/></g><g id="T"><use transform="matrix(0.06172839506172839,0,0,0.06172839506172839,0,0)" xlink:href="#ax"/><use transform="matrix(0.06172839506172839,0,0,0.06172839506172839,14.814814814814813,0)" xlink:href="#at"/><use transform="matrix(0.06172839506172839,0,0,0.06172839506172839,32.09876543209876,0)" xlink:href="#aO"/><use transform="matrix(0.06172839506172839,0,0,0.06172839506172839,44.444444444444436,0)" xlink:href="#aq"/><use transform="matrix(0.06172839506172839,0,0,0.06172839506172839,50.61728395061728,0)" xlink:href="#aA"/><use transform="matrix(0.06172839506172839,0,0,0.06172839506172839,66.60493827160494,0)" xlink:href="#aq"/><use transform="matrix(0.06172839506172839,0,0,0.06172839506172839,72.77777777777777,0)" xlink:href="#aS"/><use transform="matrix(0.06172839506172839,0,0,0.06172839506172839,84.62962962962962,0)" xlink:href="#aw"/><use transform="matrix(0.06172839506172839,0,0,0.06172839506172839,99.44444444444443,0)" xlink:href="#au"/></g><g id="U"><use transform="matrix(0.06172839506172839,0,0,0.06172839506172839,0,0)" xlink:href="#ar"/><use transform="matrix(0.06172839506172839,0,0,0.06172839506172839,15.987654320987653,0)" xlink:href="#aN"/><use transform="matrix(0.06172839506172839,0,0,0.06172839506172839,31.975308641975307,0)" xlink:href="#ay"/><use transform="matrix(0.06172839506172839,0,0,0.06172839506172839,46.79012345679012,0)" xlink:href="#aD"/><use transform="matrix(0.06172839506172839,0,0,0.06172839506172839,59.938271604938265,0)" xlink:href="#aw"/></g><g id="V"><use transform="matrix(0.06172839506172839,0,0,0.06172839506172839,0,0)" xlink:href="#aQ"/><use transform="matrix(0.06172839506172839,0,0,0.06172839506172839,15.987654320987653,0)" xlink:href="#at"/><use transform="matrix(0.06172839506172839,0,0,0.06172839506172839,33.2716049382716,0)" xlink:href="#au"/><use transform="matrix(0.06172839506172839,0,0,0.06172839506172839,49.25925925925925,0)" xlink:href="#aw"/></g><g id="W"><use transform="matrix(0.06172839506172839,0,0,0.06172839506172839,0,0)" xlink:href="#aR"/><use transform="matrix(0.06172839506172839,0,0,0.06172839506172839,13.518518518518517,0)" xlink:href="#aw"/><use transform="matrix(0.06172839506172839,0,0,0.06172839506172839,28.33333333333333,0)" xlink:href="#aA"/><use transform="matrix(0.06172839506172839,0,0,0.06172839506172839,44.32098765432098,0)" xlink:href="#ay"/><use transform="matrix(0.06172839506172839,0,0,0.06172839506172839,59.1358024691358,0)" xlink:href="#aB"/><use transform="matrix(0.06172839506172839,0,0,0.06172839506172839,73.9506172839506,0)" xlink:href="#aS"/><use transform="matrix(0.06172839506172839,0,0,0.06172839506172839,85.80246913580245,0)" xlink:href="#aw"/><use transform="matrix(0.06172839506172839,0,0,0.06172839506172839,100.61728395061726,0)" xlink:href="#au"/></g><g id="X"><use transform="matrix(0.06172839506172839,0,0,0.06172839506172839,0,0)" xlink:href="#ax"/><use transform="matrix(0.06172839506172839,0,0,0.06172839506172839,14.814814814814813,0)" xlink:href="#at"/><use transform="matrix(0.06172839506172839,0,0,0.06172839506172839,32.09876543209876,0)" xlink:href="#aO"/><use transform="matrix(0.06172839506172839,0,0,0.06172839506172839,44.444444444444436,0)" xlink:href="#aq"/><use transform="matrix(0.06172839506172839,0,0,0.06172839506172839,50.61728395061728,0)" xlink:href="#aA"/><use transform="matrix(0.06172839506172839,0,0,0.06172839506172839,66.60493827160494,0)" xlink:href="#aq"/><use transform="matrix(0.06172839506172839,0,0,0.06172839506172839,72.77777777777777,0)" xlink:href="#aS"/><use transform="matrix(0.06172839506172839,0,0,0.06172839506172839,86.29629629629629,0)" xlink:href="#aN"/><use transform="matrix(0.06172839506172839,0,0,0.06172839506172839,102.28395061728395,0)" xlink:href="#aP"/><use transform="matrix(0.06172839506172839,0,0,0.06172839506172839,118.27160493827161,0)" xlink:href="#aT"/></g><g id="Y"><use transform="matrix(0.06172839506172839,0,0,0.06172839506172839,0,0)" xlink:href="#ax"/><use transform="matrix(0.06172839506172839,0,0,0.06172839506172839,14.814814814814813,0)" xlink:href="#at"/><use transform="matrix(0.06172839506172839,0,0,0.06172839506172839,32.09876543209876,0)" xlink:href="#aO"/><use transform="matrix(0.06172839506172839,0,0,0.06172839506172839,44.444444444444436,0)" xlink:href="#aq"/><use transform="matrix(0.06172839506172839,0,0,0.06172839506172839,50.61728395061728,0)" xlink:href="#aA"/><use transform="matrix(0.06172839506172839,0,0,0.06172839506172839,66.60493827160494,0)" xlink:href="#aq"/><use transform="matrix(0.06172839506172839,0,0,0.06172839506172839,72.77777777777777,0)" xlink:href="#aS"/><use transform="matrix(0.06172839506172839,0,0,0.06172839506172839,86.29629629629629,0)" xlink:href="#aN"/><use transform="matrix(0.06172839506172839,0,0,0.06172839506172839,102.28395061728395,0)" xlink:href="#aP"/></g><g id="Z"><use transform="matrix(0.06172839506172839,0,0,0.06172839506172839,0,0)" xlink:href="#aq"/><use transform="matrix(0.06172839506172839,0,0,0.06172839506172839,6.172839506172839,0)" xlink:href="#ar"/><use transform="matrix(0.06172839506172839,0,0,0.06172839506172839,22.160493827160494,0)" xlink:href="#ax"/><use transform="matrix(0.06172839506172839,0,0,0.06172839506172839,36.9753086419753,0)" xlink:href="#aA"/><use transform="matrix(0.06172839506172839,0,0,0.06172839506172839,52.962962962962955,0)" xlink:href="#au"/><use transform="matrix(0.06172839506172839,0,0,0.06172839506172839,68.9506172839506,0)" xlink:href="#aq"/><use transform="matrix(0.06172839506172839,0,0,0.06172839506172839,75.12345679012344,0)" xlink:href="#aB"/><use transform="matrix(0.06172839506172839,0,0,0.06172839506172839,89.93827160493825,0)" xlink:href="#aA"/><use transform="matrix(0.06172839506172839,0,0,0.06172839506172839,105.92592592592591,0)" xlink:href="#aq"/><use transform="matrix(0.06172839506172839,0,0,0.06172839506172839,112.09876543209874,0)" xlink:href="#aC"/><use transform="matrix(0.06172839506172839,0,0,0.06172839506172839,129.38271604938268,0)" xlink:href="#ar"/></g><g id="aa"><use transform="matrix(0.06172839506172839,0,0,0.06172839506172839,0,0)" xlink:href="#aS"/><use transform="matrix(0.06172839506172839,0,0,0.06172839506172839,13.518518518518517,0)" xlink:href="#aq"/><use transform="matrix(0.06172839506172839,0,0,0.06172839506172839,19.691358024691358,0)" xlink:href="#ay"/><use transform="matrix(0.06172839506172839,0,0,0.06172839506172839,34.50617283950617,0)" xlink:href="#av"/><use transform="matrix(0.06172839506172839,0,0,0.06172839506172839,52.96296296296296,0)" xlink:href="#aB"/><use transform="matrix(0.06172839506172839,0,0,0.06172839506172839,67.77777777777777,0)" xlink:href="#at"/></g><g id="ab"><use transform="matrix(0.06172839506172839,0,0,0.06172839506172839,0,0)" xlink:href="#aq"/><use transform="matrix(0.06172839506172839,0,0,0.06172839506172839,6.172839506172839,0)" xlink:href="#ar"/><use transform="matrix(0.06172839506172839,0,0,0.06172839506172839,22.160493827160494,0)" xlink:href="#ax"/><use transform="matrix(0.06172839506172839,0,0,0.06172839506172839,36.9753086419753,0)" xlink:href="#aA"/><use transform="matrix(0.06172839506172839,0,0,0.06172839506172839,52.962962962962955,0)" xlink:href="#au"/><use transform="matrix(0.06172839506172839,0,0,0.06172839506172839,68.9506172839506,0)" xlink:href="#aq"/><use transform="matrix(0.06172839506172839,0,0,0.06172839506172839,75.12345679012344,0)" xlink:href="#aS"/><use transform="matrix(0.06172839506172839,0,0,0.06172839506172839,88.20987654320986,0)" xlink:href="#at"/><use transform="matrix(0.06172839506172839,0,0,0.06172839506172839,105.49382716049381,0)" xlink:href="#ax"/></g><path fill="#008573" d="M18-27v-27l151-64-151-65v-27l175 74v36" id="bd"/><path fill="#008573" d="M18-150v-26h174v26H18zm0 90v-26h174v26H18" id="be"/><g id="ac"><use transform="matrix(0.06172839506172839,0,0,0.06172839506172839,0,0)" xlink:href="#bd"/><use transform="matrix(0.06172839506172839,0,0,0.06172839506172839,12.962962962962962,0)" xlink:href="#be"/></g><path fill="#008573" d="M25-269c9-18 26-28 38-43h36v5l-54 38H25zM33 0v-248h34V0H33" id="bf"/><g id="ad"><use transform="matrix(0.06172839506172839,0,0,0.06172839506172839,0,0)" xlink:href="#av"/><use transform="matrix(0.06172839506172839,0,0,0.06172839506172839,18.456790123456788,0)" xlink:href="#bf"/><use transform="matrix(0.06172839506172839,0,0,0.06172839506172839,24.629629629629626,0)" xlink:href="#ar"/><use transform="matrix(0.06172839506172839,0,0,0.06172839506172839,40.61728395061728,0)" xlink:href="#aq"/><use transform="matrix(0.06172839506172839,0,0,0.06172839506172839,46.79012345679012,0)" xlink:href="#av"/><use transform="matrix(0.06172839506172839,0,0,0.06172839506172839,65.24691358024691,0)" xlink:href="#at"/></g><g id="ae"><use transform="matrix(0.06172839506172839,0,0,0.06172839506172839,0,0)" xlink:href="#aq"/><use transform="matrix(0.06172839506172839,0,0,0.06172839506172839,6.172839506172839,0)" xlink:href="#ar"/><use transform="matrix(0.06172839506172839,0,0,0.06172839506172839,22.160493827160494,0)" xlink:href="#ax"/><use transform="matrix(0.06172839506172839,0,0,0.06172839506172839,36.9753086419753,0)" xlink:href="#aA"/><use transform="matrix(0.06172839506172839,0,0,0.06172839506172839,52.962962962962955,0)" xlink:href="#au"/><use transform="matrix(0.06172839506172839,0,0,0.06172839506172839,68.9506172839506,0)" xlink:href="#aq"/><use transform="matrix(0.06172839506172839,0,0,0.06172839506172839,75.12345679012344,0)" xlink:href="#aS"/><use transform="matrix(0.06172839506172839,0,0,0.06172839506172839,88.20987654320986,0)" xlink:href="#at"/><use transform="matrix(0.06172839506172839,0,0,0.06172839506172839,105.49382716049381,0)" xlink:href="#ax"/></g><g id="af"><use transform="matrix(0.06172839506172839,0,0,0.06172839506172839,0,0)" xlink:href="#av"/><use transform="matrix(0.06172839506172839,0,0,0.06172839506172839,18.456790123456788,0)" xlink:href="#aw"/><use transform="matrix(0.06172839506172839,0,0,0.06172839506172839,31.604938271604933,0)" xlink:href="#aS"/><use transform="matrix(0.06172839506172839,0,0,0.06172839506172839,45.12345679012345,0)" xlink:href="#ay"/><use transform="matrix(0.06172839506172839,0,0,0.06172839506172839,59.938271604938265,0)" xlink:href="#au"/><use transform="matrix(0.06172839506172839,0,0,0.06172839506172839,75.92592592592592,0)" xlink:href="#aq"/><use transform="matrix(0.06172839506172839,0,0,0.06172839506172839,82.09876543209876,0)" xlink:href="#aw"/><use transform="matrix(0.06172839506172839,0,0,0.06172839506172839,96.91358024691357,0)" xlink:href="#ax"/></g><g id="ag"><use transform="matrix(0.06172839506172839,0,0,0.06172839506172839,0,0)" xlink:href="#aQ"/><use transform="matrix(0.06172839506172839,0,0,0.06172839506172839,15.987654320987653,0)" xlink:href="#aw"/><use transform="matrix(0.06172839506172839,0,0,0.06172839506172839,30.80246913580247,0)" xlink:href="#az"/><use transform="matrix(0.06172839506172839,0,0,0.06172839506172839,45.61728395061728,0)" xlink:href="#aq"/><use transform="matrix(0.06172839506172839,0,0,0.06172839506172839,51.79012345679012,0)" xlink:href="#aO"/><use transform="matrix(0.06172839506172839,0,0,0.06172839506172839,64.1358024691358,0)" xlink:href="#aq"/><use transform="matrix(0.06172839506172839,0,0,0.06172839506172839,70.30864197530863,0)" xlink:href="#aS"/><use transform="matrix(0.06172839506172839,0,0,0.06172839506172839,82.16049382716048,0)" xlink:href="#aw"/><use transform="matrix(0.06172839506172839,0,0,0.06172839506172839,96.97530864197529,0)" xlink:href="#aP"/><use transform="matrix(0.06172839506172839,0,0,0.06172839506172839,112.96296296296295,0)" xlink:href="#aw"/><use transform="matrix(0.06172839506172839,0,0,0.06172839506172839,127.77777777777777,0)" xlink:href="#ax"/></g><g id="ah"><use transform="matrix(0.06172839506172839,0,0,0.06172839506172839,0,0)" xlink:href="#ar"/><use transform="matrix(0.06172839506172839,0,0,0.06172839506172839,15.987654320987653,0)" xlink:href="#at"/><use transform="matrix(0.06172839506172839,0,0,0.06172839506172839,33.2716049382716,0)" xlink:href="#aS"/><use transform="matrix(0.06172839506172839,0,0,0.06172839506172839,46.79012345679012,0)" xlink:href="#aq"/><use transform="matrix(0.06172839506172839,0,0,0.06172839506172839,52.96296296296296,0)" xlink:href="#as"/><use transform="matrix(0.06172839506172839,0,0,0.06172839506172839,66.48148148148148,0)" xlink:href="#aq"/><use transform="matrix(0.06172839506172839,0,0,0.06172839506172839,72.65432098765432,0)" xlink:href="#aA"/><use transform="matrix(0.06172839506172839,0,0,0.06172839506172839,88.64197530864197,0)" xlink:href="#aw"/><use transform="matrix(0.06172839506172839,0,0,0.06172839506172839,103.45679012345678,0)" xlink:href="#au"/></g><g id="ai"><use transform="matrix(0.06172839506172839,0,0,0.06172839506172839,0,0)" xlink:href="#aA"/><use transform="matrix(0.06172839506172839,0,0,0.06172839506172839,15.987654320987653,0)" xlink:href="#aq"/><use transform="matrix(0.06172839506172839,0,0,0.06172839506172839,22.160493827160494,0)" xlink:href="#ay"/><use transform="matrix(0.06172839506172839,0,0,0.06172839506172839,36.9753086419753,0)" xlink:href="#au"/><use transform="matrix(0.06172839506172839,0,0,0.06172839506172839,52.962962962962955,0)" xlink:href="#au"/><use transform="matrix(0.06172839506172839,0,0,0.06172839506172839,68.9506172839506,0)" xlink:href="#ay"/></g><g id="aj"><use transform="matrix(0.06172839506172839,0,0,0.06172839506172839,0,0)" xlink:href="#aD"/><use transform="matrix(0.06172839506172839,0,0,0.06172839506172839,14.814814814814813,0)" xlink:href="#ay"/><use transform="matrix(0.06172839506172839,0,0,0.06172839506172839,29.629629629629626,0)" xlink:href="#au"/><use transform="matrix(0.06172839506172839,0,0,0.06172839506172839,45.61728395061728,0)" xlink:href="#aq"/><use transform="matrix(0.06172839506172839,0,0,0.06172839506172839,51.79012345679012,0)" xlink:href="#as"/><use transform="matrix(0.06172839506172839,0,0,0.06172839506172839,65.30864197530863,0)" xlink:href="#aq"/><use transform="matrix(0.06172839506172839,0,0,0.06172839506172839,71.48148148148147,0)" xlink:href="#aA"/><use transform="matrix(0.06172839506172839,0,0,0.06172839506172839,87.46913580246913,0)" xlink:href="#aw"/><use transform="matrix(0.06172839506172839,0,0,0.06172839506172839,102.28395061728394,0)" xlink:href="#au"/></g><g id="ak"><use transform="matrix(0.06172839506172839,0,0,0.06172839506172839,0,0)" xlink:href="#aQ"/><use transform="matrix(0.06172839506172839,0,0,0.06172839506172839,15.987654320987653,0)" xlink:href="#at"/><use transform="matrix(0.06172839506172839,0,0,0.06172839506172839,33.2716049382716,0)" xlink:href="#au"/><use transform="matrix(0.06172839506172839,0,0,0.06172839506172839,49.25925925925925,0)" xlink:href="#aw"/><use transform="matrix(0.06172839506172839,0,0,0.06172839506172839,64.07407407407406,0)" xlink:href="#au"/><use transform="matrix(0.06172839506172839,0,0,0.06172839506172839,80.06172839506172,0)" xlink:href="#aq"/><use transform="matrix(0.06172839506172839,0,0,0.06172839506172839,86.23456790123456,0)" xlink:href="#at"/><use transform="matrix(0.06172839506172839,0,0,0.06172839506172839,103.5185185185185,0)" xlink:href="#ax"/></g><path fill="#008573" d="M137-103V0h-34v-103L8-248h37l75 118 75-118h37" id="bg"/><use transform="matrix(0.06172839506172839,0,0,0.06172839506172839,0,0)" xlink:href="#bg" id="al"/><g id="am"><use transform="matrix(0.06172839506172839,0,0,0.06172839506172839,0,0)" xlink:href="#aw"/><use transform="matrix(0.06172839506172839,0,0,0.06172839506172839,14.814814814814813,0)" xlink:href="#aN"/><use transform="matrix(0.06172839506172839,0,0,0.06172839506172839,30.80246913580247,0)" xlink:href="#aO"/><use transform="matrix(0.06172839506172839,0,0,0.06172839506172839,43.148148148148145,0)" xlink:href="#aw"/><use transform="matrix(0.06172839506172839,0,0,0.06172839506172839,57.96296296296296,0)" xlink:href="#ax"/></g><g id="an"><use transform="matrix(0.06172839506172839,0,0,0.06172839506172839,0,0)" xlink:href="#aw"/><use transform="matrix(0.06172839506172839,0,0,0.06172839506172839,14.814814814814813,0)" xlink:href="#ax"/><use transform="matrix(0.06172839506172839,0,0,0.06172839506172839,29.629629629629626,0)" xlink:href="#aq"/><use transform="matrix(0.06172839506172839,0,0,0.06172839506172839,35.80246913580247,0)" xlink:href="#ax"/><use transform="matrix(0.06172839506172839,0,0,0.06172839506172839,50.61728395061728,0)" xlink:href="#aS"/><use transform="matrix(0.06172839506172839,0,0,0.06172839506172839,64.1358024691358,0)" xlink:href="#aq"/><use transform="matrix(0.06172839506172839,0,0,0.06172839506172839,70.30864197530863,0)" xlink:href="#au"/></g><use transform="matrix(0.06172839506172839,0,0,0.06172839506172839,0,0)" xlink:href="#aw" id="ao"/><g id="ap"><use transform="matrix(0.06172839506172839,0,0,0.06172839506172839,0,0)" xlink:href="#aA"/><use transform="matrix(0.06172839506172839,0,0,0.06172839506172839,15.987654320987653,0)" xlink:href="#aO"/><use transform="matrix(0.06172839506172839,0,0,0.06172839506172839,28.333333333333332,0)" xlink:href="#aw"/><use transform="matrix(0.06172839506172839,0,0,0.06172839506172839,43.148148148148145,0)" xlink:href="#ax"/><use transform="matrix(0.06172839506172839,0,0,0.06172839506172839,57.96296296296296,0)" xlink:href="#ay"/><use transform="matrix(0.06172839506172839,0,0,0.06172839506172839,72.77777777777777,0)" xlink:href="#ax"/></g></defs></g></svg>