<svg xmlns="http://www.w3.org/2000/svg" xmlns:xlink="http://www.w3.org/1999/xlink" xmlns:lucid="lucid" width="1346.5" height="1620"><g transform="translate(221.5016447772998 -40)" lucid:page-tab-id="BU44X81rFIl0"><path d="M-2823.23 0h8569.7v2066.93h-8569.7z" fill="#fff"/><path d="M70 200a40 40 0 0 1 40-40h220a40 40 0 0 1 40 40 40 40 0 0 1-40 40H110a40 40 0 0 1-40-40z" stroke="#008573" stroke-width="3" fill="#fff"/><use xlink:href="#a" transform="matrix(1,0,0,1,90.00000000000003,160) translate(17.438271604938294 31.111111111111114)"/><use xlink:href="#b" transform="matrix(1,0,0,1,90.00000000000003,160) translate(152.62345679012344 31.111111111111114)"/><use xlink:href="#c" transform="matrix(1,0,0,1,90.00000000000003,160) translate(46.23456790123457 57.77777777777778)"/><use xlink:href="#d" transform="matrix(1,0,0,1,90.00000000000003,160) translate(83.20987654320987 57.77777777777778)"/><path d="M40 286a6 6 0 0 1 6-6h328a6 6 0 0 1 6 6v68a6 6 0 0 1-6 6H46a6 6 0 0 1-6-6z" stroke="#008573" stroke-width="3" fill="#fff"/><use xlink:href="#e" transform="matrix(1,0,0,1,60.00000000000003,280) translate(4.598765432098787 31.111111111111114)"/><use xlink:href="#f" transform="matrix(1,0,0,1,60.00000000000003,280) translate(119.2283950617284 31.111111111111114)"/><use xlink:href="#g" transform="matrix(1,0,0,1,60.00000000000003,280) translate(57.59259259259258 57.77777777777778)"/><use xlink:href="#h" transform="matrix(1,0,0,1,60.00000000000003,280) translate(94.5679012345679 57.77777777777778)"/><path d="M220 242.5V260" stroke="#008573" stroke-width="2" fill="none"/><path d="M221 242.53h-2v-1.03h2z" stroke="#008573" stroke-width=".05" fill="#008573"/><path d="M220 275.26L215.37 261h9.26z" stroke="#008573" stroke-width="2" fill="#008573"/><path d="M215 362.5V380" stroke="#008573" stroke-width="2" fill="none"/><path d="M216 362.53h-2v-1.03h2z" stroke="#008573" stroke-width=".05" fill="#008573"/><path d="M215 395.26L210.37 381h9.26z" stroke="#008573" stroke-width="2" fill="#008573"/><path d="M147.5 46a6 6 0 0 1 6-6h133a6 6 0 0 1 6 6v48a6 6 0 0 1-6 6h-133a6 6 0 0 1-6-6z" stroke="#000" stroke-opacity="0" stroke-width="3" fill="#fff" fill-opacity="0"/><use xlink:href="#i" transform="matrix(1,0,0,1,152.5,45) translate(3.111496913580254 29.583333333333332)"/><path d="M115 406a6 6 0 0 1 6-6h168a6 6 0 0 1 6 6v79c-30.06-14.2-48.78-14.2-60.12-14.2-18 0-41.94 14.2-59.94 14.2-11.16 0-30.06 0-59.94-14.2z" stroke="#008573" stroke-width="3" fill="#fff"/><path d="M125 413.5a6 6 0 0 1 6-6h168a6 6 0 0 1 6 6v79c-30.06-14.2-48.78-14.2-60.12-14.2-18 0-41.94 14.2-59.94 14.2-11.16 0-30.06 0-59.94-14.2z" stroke="#008573" stroke-width="3" fill="#fff"/><path d="M135 421a6 6 0 0 1 6-6h168a6 6 0 0 1 6 6v79c-30.06-14.2-48.78-14.2-60.12-14.2-18 0-41.94 14.2-59.94 14.2-11.16 0-30.06 0-59.94-14.2z" stroke="#008573" stroke-width="3" fill="#fff"/><use xlink:href="#j" transform="matrix(1,0,0,1,140,420) translate(45.82175925925927 22.444444444444443)"/><use xlink:href="#k" transform="matrix(1,0,0,1,140,420) translate(15.700231481481495 48)"/><path d="M547.5 166a6 6 0 0 1 6-6h178a6 6 0 0 1 6 6v68a6 6 0 0 1-6 6h-178a6 6 0 0 1-6-6z" stroke="#008573" stroke-width="3" fill="#fff"/><use xlink:href="#l" transform="matrix(1,0,0,1,567.5,160) translate(28.84066358024692 31.944444444444443)"/><use xlink:href="#m" transform="matrix(1,0,0,1,567.5,160) translate(5.700231481481495 57.5)"/><path d="M547.5 286a6 6 0 0 1 6-6h178a6 6 0 0 1 6 6v68a6 6 0 0 1-6 6h-178a6 6 0 0 1-6-6z" fill="#fff"/><path d="M583.17 280h29.66m14.84 0h29.66m14.84 0h29.66m14.84 0h14.83l.94.07.9.22.88.35.8.5.72.6.6.72.5.8.37.88.23.9.07.95v11.33m0 11.34v22.66m0 11.34V354l-.07.94-.22.9-.35.88-.5.8-.6.72-.72.6-.8.5-.88.37-.9.23-.95.07h-14.83m-14.84 0h-29.66m-14.84 0h-29.66m-14.84 0h-29.66m-14.84 0H553.5l-.94-.07-.9-.22-.88-.35-.8-.5-.72-.6-.6-.72-.5-.8-.37-.88-.23-.9-.07-.95v-11.33m0-11.34v-22.66m0-11.34V286l.07-.94.22-.9.35-.88.5-.8.6-.72.72-.6.8-.5.88-.37.9-.23.95-.07h14.83" stroke="#008573" stroke-width="3" fill="none"/><use xlink:href="#n" transform="matrix(1,0,0,1,567.5,280) translate(19.09722222222223 31.944444444444443)"/><use xlink:href="#o" transform="matrix(1,0,0,1,567.5,280) translate(22.627314814814824 57.5)"/><path d="M317.5 450.16H424a6 6 0 0 0 6-6V206a6 6 0 0 1 6-6h91.5" stroke="#008573" stroke-width="2" fill="none"/><path d="M317.53 451.16h-1.03v-2h1.03z" stroke="#008573" stroke-width=".05" fill="#008573"/><path d="M542.76 200l-14.26 4.63v-9.26z" stroke="#008573" stroke-width="2" fill="#008573"/><path d="M642.5 242.5V260" stroke="#008573" stroke-width="2" fill="none"/><path d="M643.5 242.53h-2v-1.03h2z" stroke="#008573" stroke-width=".05" fill="#008573"/><path d="M642.5 275.26L637.87 261h9.26z" stroke="#008573" stroke-width="2" fill="#008573"/><path d="M642.5 362.5V380" stroke="#008573" stroke-width="2" fill="none"/><path d="M643.5 362.53h-2v-1.03h2z" stroke="#008573" stroke-width=".05" fill="#008573"/><path d="M642.5 395.26L637.87 381h9.26z" stroke="#008573" stroke-width="2" fill="#008573"/><path d="M537.96 406a6 6 0 0 1 6-6h176.17a6 6 0 0 1 6 6v147c-31.42-25.55-51-25.55-62.85-25.55-18.8 0-43.84 25.55-62.66 25.55-11.67 0-31.42 0-62.66-25.55z" stroke="#008573" stroke-width="3" fill="#fff"/><path d="M548.4 419.5a6 6 0 0 1 6-6h176.2a6 6 0 0 1 6 6v147c-31.44-25.55-51-25.55-62.86-25.55-18.82 0-43.85 25.55-62.66 25.55-11.67 0-31.43 0-62.67-25.55z" stroke="#008573" stroke-width="3" fill="#fff"/><path d="M558.87 433a6 6 0 0 1 6-6h176.17a6 6 0 0 1 6 6v147c-31.42-25.55-51-25.55-62.85-25.55-18.83 0-43.85 25.55-62.67 25.55-11.67 0-31.43 0-62.66-25.55z" stroke="#008573" stroke-width="3" fill="#fff"/><use xlink:href="#p" transform="matrix(1,0,0,1,563.8666666666666,432) translate(34.03703703703704 23.44444444444445)"/><use xlink:href="#q" transform="matrix(1,0,0,1,563.8666666666666,432) translate(23.35802469135804 50.11111111111112)"/><use xlink:href="#r" transform="matrix(1,0,0,1,563.8666666666666,432) translate(141.25925925925924 50.11111111111112)"/><use xlink:href="#s" transform="matrix(1,0,0,1,563.8666666666666,432) translate(30.333333333333343 76.77777777777779)"/><use xlink:href="#t" transform="matrix(1,0,0,1,563.8666666666666,432) translate(16.969135802469154 103.44444444444446)"/><path d="M642.5 575.34v25.73a6 6 0 0 1-6 6H226a6 6 0 0 0-6 6v8.22" stroke="#008573" stroke-width="2" fill="none"/><path d="M643.5 575.36h-2v-.48l2-1.1z" stroke="#008573" stroke-width=".05" fill="#008573"/><path d="M220 636.56l-4.63-14.27h9.26z" stroke="#008573" stroke-width="2" fill="#008573"/><path d="M214.53 642.48a13.25 13.25 0 0 1 10.94 0l121.56 55.04a2.72 2.72 0 0 1 0 4.96L225.47 757.5a13.25 13.25 0 0 1-10.94 0L92.97 702.5a2.72 2.72 0 0 1 0-4.96z" stroke="#008573" stroke-width="3" fill="#fff"/><use xlink:href="#u" transform="matrix(1,0,0,1,92.5,645) translate(71.64080246913582 45.27777777777778)"/><use xlink:href="#v" transform="matrix(1,0,0,1,92.5,645) translate(53.49265432098766 71.94444444444446)"/><path d="M-92.83 701h-41.13l-.82.07-.76.18-.73.3-.67.4-.6.52-.5.6-.4.66-.3.73-.2.76-.06.82V780h-2v-74.04l.08-1.06.26-1.06.42-1.02.57-.94.72-.83.83-.72.94-.57 1.02-.42 1.06-.26 1.06-.08h41.2zm181.7 0H-55.82v-2H88.85z" stroke="#e81313" stroke-width=".05" fill="#e81313"/><path d="M89.97 699.04l-.1.96.1.96-1.14.04v-2h1.15z" fill="#e81313"/><path d="M90 699.05l-.1.95.1.98-1.2.05v-2.05h1.22zm-1.14-.02v1.94l1.08-.03-.1-.94.1-.97z" stroke="#e81313" stroke-width=".05" fill="#e81313"/><path d="M-140 795.26l-4.63-14.26h9.26z" fill="#e81313"/><path d="M-140 798.5l-6-18.5h12zm-3.26-16.5l3.26 10.03 3.26-10.03z" stroke="#e81313" stroke-width=".05" fill="#e81313"/><use xlink:href="#w" transform="matrix(1,0,0,1,-92.82748787486607,685.1666666666666) translate(0.004999999999999005 19.777777777777782)"/><path d="M356.65 837.5h-140.6l-.83.07-.76.18-.73.3-.67.4-.6.52-.5.6-.4.66-.3.73-.2.76-.06.82V858h-2v-15.54l.08-1.06.26-1.06.42-1.02.57-.94.72-.83.83-.72.94-.57 1.02-.42 1.06-.26 1.06-.08h140.7zm28.6-138.42l1.05.26 1.02.42.94.57.83.72.7.83.58.94.42 1.02.26 1.06.08 1.06v124.58l-.08 1.06-.26 1.06-.42 1.02-.57.94-.7.83-.84.72-.94.57-1.02.42-1.06.26-1.06.08h-4.2v-2h4.12l.82-.07.76-.18.73-.3.68-.4.6-.52.5-.6.4-.66.3-.73.2-.76.06-.82V706.04l-.06-.82-.2-.76-.3-.73-.4-.67-.5-.6-.6-.5-.67-.4-.72-.3-.76-.2-.82-.06h-32.96v-2h33.04z" stroke="#008a0e" stroke-width=".05" fill="#008a0e"/><path d="M351.17 701h-1.15l.12-1-.1-.96 1.13-.04z" fill="#008a0e"/><path d="M351.2 701.02H350l.12-1.02-.12-.98 1.2-.05zm-1.14-1.96l.1.94-.12.98h1.1v-1.95z" stroke="#008a0e" stroke-width=".05" fill="#008a0e"/><path d="M210 873.26L205.37 859h9.26z" fill="#008a0e"/><path d="M210 876.5l-6-18.5h12zm-3.26-16.5l3.26 10.03 3.26-10.03z" stroke="#008a0e" stroke-width=".05" fill="#008a0e"/><use xlink:href="#x" transform="matrix(1,0,0,1,356.6457999119029,821.6667166666662) translate(0.005000000000000782 19.777777777777782)"/><path d="M120 884a6 6 0 0 1 6-6h168a6 6 0 0 1 6 6v70a6 6 0 0 1-6 6H126a6 6 0 0 1-6-6z" stroke="#008573" stroke-width="3" fill="#fff"/><use xlink:href="#y" transform="matrix(1,0,0,1,132,889.9999999999998) translate(20.283950617283956 21.46527777777778)"/><use xlink:href="#z" transform="matrix(1,0,0,1,132,889.9999999999998) translate(7.753086419753089 48.13194444444444)"/><use xlink:href="#A" transform="matrix(1,0,0,1,132,889.9999999999998) translate(103.92592592592592 48.13194444444444)"/><path d="M543.75 884a6 6 0 0 1 6-6h185.5a6 6 0 0 1 6 6v70a6 6 0 0 1-6 6h-185.5a6 6 0 0 1-6-6z" stroke="#008573" stroke-width="3" fill="#fff"/><use xlink:href="#B" transform="matrix(1,0,0,1,555.75,889.9999999999998) translate(32.15432098765432 21.46527777777778)"/><use xlink:href="#z" transform="matrix(1,0,0,1,555.75,889.9999999999998) translate(16.75308641975309 48.13194444444444)"/><use xlink:href="#A" transform="matrix(1,0,0,1,555.75,889.9999999999998) translate(112.92592592592592 48.13194444444444)"/><path d="M302.5 919h221.25" stroke="#008573" stroke-width="2" fill="none"/><path d="M302.53 920h-1.03v-2h1.03z" stroke="#008573" stroke-width=".05" fill="#008573"/><path d="M539 919l-14.25 4.63v-9.26z" stroke="#008573" stroke-width="2" fill="#008573"/><path d="M130 1049.78a6 6 0 0 1 6-6h148a6 6 0 0 1 6 6v70a6 6 0 0 1-6 6H136a6 6 0 0 1-6-6z" stroke="#008573" stroke-width="3" fill="#fff"/><use xlink:href="#C" transform="matrix(1,0,0,1,142,1055.78125) translate(13.771604938271608 21.46527777777778)"/><use xlink:href="#D" transform="matrix(1,0,0,1,142,1055.78125) translate(10.870370370370381 48.13194444444444)"/><path d="M642.5 962.5v33.4a6 6 0 0 1-6 6H216a6 6 0 0 0-6 6v15.88" stroke="#008573" stroke-width="2" fill="none"/><path d="M643.5 962.53h-2v-1.03h2z" stroke="#008573" stroke-width=".05" fill="#008573"/><path d="M210 1039.05l-4.63-14.27h9.26z" stroke="#008573" stroke-width="2" fill="#008573"/><path d="M292.5 1084.78h231.25" stroke="#008573" stroke-width="2" fill="none"/><path d="M292.53 1085.78h-1.03v-2h1.03z" stroke="#008573" stroke-width=".05" fill="#008573"/><path d="M539 1084.78l-14.25 4.64v-9.27z" stroke="#008573" stroke-width="2" fill="#008573"/><path d="M543.75 1051.78a6 6 0 0 1 6-6h185.5a6 6 0 0 1 6 6v68a6 6 0 0 1-6 6h-185.5a6 6 0 0 1-6-6z" stroke="#008573" stroke-width="3" fill="#fff"/><use xlink:href="#E" transform="matrix(1,0,0,1,555.75,1057.78125) translate(7.12345679012347 21.27777777777778)"/><use xlink:href="#F" transform="matrix(1,0,0,1,555.75,1057.78125) translate(31.13580246913581 47.94444444444444)"/><path d="M517.6 1171.78a6 6 0 0 1 6-6h237.8a6 6 0 0 1 6 6v69.56a6 6 0 0 1-6 6H523.6a6 6 0 0 1-6-6z" stroke="#008573" stroke-width="3" fill="#fff"/><use xlink:href="#G" transform="matrix(1,0,0,1,529.6045767716546,1177.78125) translate(5.345679012345698 21.40277777777778)"/><use xlink:href="#H" transform="matrix(1,0,0,1,529.6045767716546,1177.78125) translate(124.48148148148148 21.40277777777778)"/><use xlink:href="#I" transform="matrix(1,0,0,1,529.6045767716546,1177.78125) translate(21.82716049382718 48.06944444444444)"/><use xlink:href="#J" transform="matrix(1,0,0,1,529.6045767716546,1177.78125) translate(58.80246913580249 48.06944444444444)"/><path d="M642.5 1128.28v17.5" stroke="#008573" stroke-width="2" fill="none"/><path d="M643.5 1128.3h-2v-1.02h2z" stroke="#008573" stroke-width=".05" fill="#008573"/><path d="M642.5 1161.05l-4.63-14.27h9.26z" stroke="#008573" stroke-width="2" fill="#008573"/><path d="M115 1173.34a6 6 0 0 1 6-6h178a6 6 0 0 1 6 6v68a6 6 0 0 1-6 6H121a6 6 0 0 1-6-6z" stroke="#008573" stroke-width="3" fill="#fff"/><use xlink:href="#K" transform="matrix(1,0,0,1,127,1179.34375) translate(3.4938271604938365 21.27777777777778)"/><use xlink:href="#F" transform="matrix(1,0,0,1,127,1179.34375) translate(27.13580246913581 47.94444444444444)"/><path d="M515.1 1207.34H325" stroke="#008573" stroke-width="2" fill="none"/><path d="M516.1 1208.34h-1.02v-2h1.02z" stroke="#008573" stroke-width=".05" fill="#008573"/><path d="M309.74 1207.34l14.26-4.63v9.28z" stroke="#008573" stroke-width="2" fill="#008573"/><path d="M105 1294.9a6 6 0 0 1 6-6h198a6 6 0 0 1 6 6v44.88a6 6 0 0 1-6 6H111a6 6 0 0 1-6-6z" stroke="#008573" stroke-width="3" fill="#fff"/><use xlink:href="#L" transform="matrix(1,0,0,1,117,1300.90625) translate(22.13580246913581 21.90277777777778)"/><path d="M210 1249.84v19.06" stroke="#008573" stroke-width="2" fill="none"/><path d="M211 1249.87h-2v-1.03h2z" stroke="#008573" stroke-width=".05" fill="#008573"/><path d="M210 1284.17l-4.63-14.27h9.26z" stroke="#008573" stroke-width="2" fill="#008573"/><path d="M105 1393.34a6 6 0 0 1 6-6h177a6 6 0 0 1 6 6v79c-31.56-14.2-51.22-14.2-63.13-14.2-18.9 0-44.03 14.2-62.93 14.2-11.72 0-31.57 0-62.94-14.2z" stroke="#008573" stroke-width="3" fill="#fff"/><path d="M115.5 1400.84a6 6 0 0 1 6-6h177a6 6 0 0 1 6 6v79c-31.56-14.2-51.22-14.2-63.13-14.2-18.9 0-44.03 14.2-62.93 14.2-11.72 0-31.57 0-62.94-14.2z" stroke="#008573" stroke-width="3" fill="#fff"/><path d="M126 1408.34a6 6 0 0 1 6-6h177a6 6 0 0 1 6 6v79c-31.56-14.2-51.22-14.2-63.13-14.2-18.9 0-44.03 14.2-62.93 14.2-11.72 0-31.57 0-62.94-14.2z" stroke="#008573" stroke-width="3" fill="#fff"/><use xlink:href="#M" transform="matrix(1,0,0,1,131,1407.34375) translate(22.55555555555557 21.611111111111114)"/><use xlink:href="#N" transform="matrix(1,0,0,1,131,1407.34375) translate(9.65432098765433 48.277777777777786)"/><path d="M210 1348.28v19.06" stroke="#008573" stroke-width="2" fill="none"/><path d="M211 1348.3h-2v-1.02h2z" stroke="#008573" stroke-width=".05" fill="#008573"/><path d="M210 1382.6l-4.63-14.26h9.26z" stroke="#008573" stroke-width="2" fill="#008573"/><path d="M938.5 1399.27a6 6 0 0 1 6-6h168a6 6 0 0 1 6 6v76.44a6 6 0 0 1-6 6h-168a6 6 0 0 1-6-6z" stroke="#008573" stroke-width="3" fill="#fff"/><g><use xlink:href="#O" transform="matrix(1,0,0,1,950.500063103698,1405.2730776589317) translate(18.864197530864203 23.611111111111114)"/><use xlink:href="#N" transform="matrix(1,0,0,1,950.500063103698,1405.2730776589317) translate(-1.84567901234567 50.27777777777778)"/></g><path d="M317.5 1437.5h601" stroke="#008573" stroke-width="2" fill="none"/><path d="M317.53 1438.5h-1.03v-2h1.03z" stroke="#008573" stroke-width=".05" fill="#008573"/><path d="M933.76 1437.5l-14.26 4.63v-9.27z" stroke="#008573" stroke-width="2" fill="#008573"/><path d="M1085.5 1539.26c21 0 38 18.08 38 40.37 0 22.3-17 40.37-38 40.37h-114c-21 0-38-18.07-38-40.37 0-22.3 17-40.37 38-40.37z" stroke="#008573" stroke-width="3" fill="#fff"/><g><use xlink:href="#P" transform="matrix(1,0,0,1,945.500063103698,1551.262660992265) translate(36.364197530864196 21.34027777777778)"/><use xlink:href="#J" transform="matrix(1,0,0,1,945.500063103698,1551.262660992265) translate(10.314814814814838 48.00694444444444)"/></g><path d="M1028.5 1484.2v35.06" stroke="#008573" stroke-width="2" fill="none"/><path d="M1029.5 1484.24h-2v-1.03h2z" stroke="#008573" stroke-width=".05" fill="#008573"/><path d="M1028.5 1534.53l-4.63-14.27h9.26z" stroke="#008573" stroke-width="2" fill="#008573"/><path d="M570 46.3a6 6 0 0 1 6-6h133a6 6 0 0 1 6 6v48a6 6 0 0 1-6 6H576a6 6 0 0 1-6-6z" stroke="#000" stroke-opacity="0" stroke-width="3" fill="#fff" fill-opacity="0"/><g><use xlink:href="#Q" transform="matrix(1,0,0,1,575,45.31250000000006) translate(37.563657407407405 29.583333333333332)"/></g><path d="M883.5 46a6 6 0 0 1 6-6h228a6 6 0 0 1 6 6v103a6 6 0 0 1-6 6h-228a6 6 0 0 1-6-6z" stroke="#000" stroke-opacity="0" stroke-width="3" fill="#fff" fill-opacity="0"/><g><use xlink:href="#R" transform="matrix(1,0,0,1,888.500063103698,45) translate(29.32291666666667 39.73958333333333)"/><use xlink:href="#S" transform="matrix(1,0,0,1,888.500063103698,45) translate(160.2488425925926 39.73958333333333)"/><use xlink:href="#T" transform="matrix(1,0,0,1,888.500063103698,45) translate(12.349537037037038 74.73958333333333)"/></g><path d="M0 62v5.98m0 7.98v11.96m0 7.97v11.96m0 7.97v11.96m0 7.97v11.96m0 7.98v11.97m0 7.97v11.97m0 7.98v11.96m0 7.98v11.96m0 7.98v11.96m0 7.97v11.96m0 7.97v11.96m0 7.97v11.96m0 7.98v11.97m0 7.97v11.97m0 7.98v11.96m0 7.98v11.96m0 7.98v11.96m0 7.97v11.96m0 7.97v11.96m0 7.97v11.96m0 7.98v11.97m0 7.97v11.97m0 7.98v11.96m0 7.98v11.96m0 7.98v11.96m0 7.97v11.96m0 7.97v11.96m0 7.97v11.96m0 7.98v11.97m0 7.97v11.97m0 7.98v11.96m0 7.98v11.96m0 7.98v11.96m0 7.97v11.96m0 7.97v11.96m0 7.97v11.96m0 7.98v11.97m0 7.97v11.97m0 7.98v11.96m0 7.98V859.58l.02.07.03.08.04.06.05.05.06.05.07.05.07.03h.08l.08.02h.08l.08.02.07.03.06.05.05.05.06.06.05.07.03.08v.07l.02.08v5.98m0 7.98v11.96m0 7.97v11.96m0 7.97v11.96m0 7.97v11.96m0 7.98v11.97m0 7.97v11.97m0 7.98v11.96m0 7.98v11.96m0 7.98v11.96m0 7.97v11.96m0 7.97v11.96m0 7.97v11.96m0 7.98v11.97m0 7.97v11.97m0 7.98v11.96m0 7.98v11.96m0 7.98v11.96m0 7.97v11.96m0 7.97v11.96m0 7.97v11.96m0 7.98v11.97m0 7.97v11.97m0 7.98v11.96m0 7.98v11.96m0 7.98v11.96m0 7.97v11.96m0 7.97v11.96m0 7.97v11.96m0 7.98v11.97m0 7.97v11.97m0 7.98v11.96m0 7.98v11.96m0 7.98v11.96m0 7.97v11.96m0 7.97v11.96m0 7.97v11.96m0 7.98v11.97m0 7.97v11.97m0 7.98v11.96m0 7.98v5.98M0 62.05V60M1 1657.95v2.05M840 62v5.98m0 7.98v11.98m0 7.98v11.97m0 7.96v11.97m0 7.98v11.98m0 7.98v11.98m0 7.97v12m0 7.97v11.97m0 7.98v11.97m0 7.97v11.97m0 7.97v12m0 7.96v11.98m0 7.98v11.96m0 8v11.95m0 8v11.96m0 7.96v11.98m0 7.97v12m0 7.97v11.96m0 8v11.95m0 8v11.96m0 7.97v12m0 7.96v11.98m0 7.98v11.96m0 8v11.96m0 7.98v11.96m0 8v11.96m0 7.98v11.96m0 8v11.96m0 7.98v11.97m0 7.97v11.96m0 8v11.96m0 7.97v11.96m0 8v11.96m0 7.97v11.97m0 7.98v11.96m0 8v11.96m0 7.98v11.96m0 8v11.96m0 7.98v11.97m0 7.97v11.96m0 8v11.96m0 7.97v11.96m0 8v11.96m0 7.97v11.97m0 7.98v11.96m0 8v11.96m0 7.98v11.96m0 8v11.96m0 7.98v11.97m0 7.97v11.97m0 7.98v11.96m0 7.98v11.97m0 7.98v11.98m0 7.98v11.98m0 7.98v11.97m0 7.97v11.96m0 7.98v11.98m0 7.98v11.97m0 7.98v12m0 7.97v11.97m0 7.98v11.96m0 7.98v11.97m0 7.98v11.98m0 7.98v11.98m0 7.98v11.97m0 7.97v11.96m0 7.98v11.98m0 7.98v11.97m0 7.98v12m0 7.97v11.97m0 7.98v11.96m0 7.98v11.97m0 7.98v11.98m0 7.98v11.98m0 7.98v11.97m0 7.97v11.96m0 7.98v11.98m0 7.98v11.97m0 7.98v12m0 7.97v11.97m0 7.98v5.98M840 62.05V60M840 1657.95v2.05M470 62v5.98m0 7.98v11.98m0 7.98v11.97m0 7.96v11.97m0 7.98v11.98m0 7.98v11.98m0 7.97v12m0 7.97v11.97m0 7.98v11.97m0 7.97v11.97m0 7.97v12m0 7.96v11.98m0 7.98v11.96m0 8v11.95m0 8v11.96m0 7.96v11.98m0 7.97v12m0 7.97v11.96m0 8v11.95m0 8v11.96m0 7.97v12m0 7.96v11.98m0 7.98v11.96m0 8v11.96m0 7.98v11.96m0 8v11.96m0 7.98v11.96m0 8v11.96m0 7.98v11.97m0 7.97v11.96m0 8v11.96m0 7.97v11.96m0 8v11.96m0 7.97v11.97m0 7.98v11.96m0 8v11.96m0 7.98v11.96m0 8v11.96m0 7.98v11.97m0 7.97v11.96m0 8v11.96m0 7.97v11.96m0 8v11.96m0 7.97v11.97m0 7.98v11.96m0 8v11.96m0 7.98v11.96m0 8v11.96m0 7.98v11.97m0 7.97v11.97m0 7.98v11.96m0 7.98v11.97m0 7.98v11.98m0 7.98v11.98m0 7.98v11.97m0 7.97v11.96m0 7.98v11.98m0 7.98v11.97m0 7.98v12m0 7.97v11.97m0 7.98v11.96m0 7.98v11.97m0 7.98v11.98m0 7.98v11.98m0 7.98v11.97m0 7.97v11.96m0 7.98v11.98m0 7.98v11.97m0 7.98v12m0 7.97v11.97m0 7.98v11.96m0 7.98v11.97m0 7.98v11.98m0 7.98v11.98m0 7.98v11.97m0 7.97v11.96m0 7.98v11.98m0 7.98v11.97m0 7.98v12m0 7.97v11.97m0 7.98v5.98M470 62.05V60M470 1657.95v2.05" stroke="#ba23f6" stroke-width="4" fill="none"/><path d="M-92 800c17.67 0 32 17.9 32 40s-14.33 40-32 40h-96c-17.67 0-32-17.9-32-40s14.33-40 32-40z" stroke="#008573" stroke-width="3" fill="#fff"/><g><use xlink:href="#U" transform="matrix(1,0,0,1,-215,805) translate(58.3691975308642 26.52777777777778)"/><use xlink:href="#V" transform="matrix(1,0,0,1,-215,805) translate(4.140802469135815 53.19444444444445)"/></g><defs><path fill="#008573" d="M205 0l-28-72H64L36 0H1l101-248h38L239 0h-34zm-38-99l-47-123c-12 45-31 82-46 123h93" id="W"/><path fill="#008573" d="M137 0h-34L2-248h35l83 218 83-218h36" id="X"/><path fill="#008573" d="M30 0v-248h187v28H63v79h144v27H63v87h162V0H30" id="Y"/><path fill="#008573" d="M233-177c-1 41-23 64-60 70L243 0h-38l-65-103H63V0H30v-248c88 3 205-21 203 71zM63-129c60-2 137 13 137-47 0-61-80-42-137-45v92" id="Z"/><path fill="#008573" d="M33 0v-248h34V0H33" id="aa"/><path fill="#008573" d="M143 4C61 4 22-44 18-125c-5-107 100-154 193-111 17 8 29 25 37 43l-32 9c-13-25-37-40-76-40-61 0-88 39-88 99 0 61 29 100 91 101 35 0 62-11 79-27v-45h-74v-28h105v86C228-13 192 4 143 4" id="ab"/><path fill="#008573" d="M232-93c-1 65-40 97-104 97C67 4 28-28 28-90v-158h33c8 89-33 224 67 224 102 0 64-133 71-224h33v155" id="ac"/><g id="a"><use transform="matrix(0.06172839506172839,0,0,0.06172839506172839,0,0)" xlink:href="#W"/><use transform="matrix(0.06172839506172839,0,0,0.06172839506172839,13.148148148148147,0)" xlink:href="#X"/><use transform="matrix(0.06172839506172839,0,0,0.06172839506172839,27.962962962962962,0)" xlink:href="#Y"/><use transform="matrix(0.06172839506172839,0,0,0.06172839506172839,42.77777777777777,0)" xlink:href="#Z"/><use transform="matrix(0.06172839506172839,0,0,0.06172839506172839,58.76543209876542,0)" xlink:href="#aa"/><use transform="matrix(0.06172839506172839,0,0,0.06172839506172839,64.93827160493827,0)" xlink:href="#ab"/><use transform="matrix(0.06172839506172839,0,0,0.06172839506172839,82.22222222222221,0)" xlink:href="#ac"/><use transform="matrix(0.06172839506172839,0,0,0.06172839506172839,98.20987654320987,0)" xlink:href="#W"/><use transform="matrix(0.06172839506172839,0,0,0.06172839506172839,113.02469135802468,0)" xlink:href="#Z"/></g><path fill="#008573" d="M63-220v92h138v28H63V0H30v-248h175v28H63" id="ad"/><path fill="#008573" d="M212-179c-10-28-35-45-73-45-59 0-87 40-87 99 0 60 29 101 89 101 43 0 62-24 78-52l27 14C228-24 195 4 139 4 59 4 22-46 18-125c-6-104 99-153 187-111 19 9 31 26 39 46" id="ae"/><path fill="#008573" d="M197 0v-115H63V0H30v-248h33v105h134v-105h34V0h-34" id="af"/><path fill="#008573" d="M185-189c-5-48-123-54-124 2 14 75 158 14 163 119 3 78-121 87-175 55-17-10-28-26-33-46l33-7c5 56 141 63 141-1 0-78-155-14-162-118-5-82 145-84 179-34 5 7 8 16 11 25" id="ag"/><g id="b"><use transform="matrix(0.06172839506172839,0,0,0.06172839506172839,0,0)" xlink:href="#ad"/><use transform="matrix(0.06172839506172839,0,0,0.06172839506172839,13.518518518518517,0)" xlink:href="#Y"/><use transform="matrix(0.06172839506172839,0,0,0.06172839506172839,28.33333333333333,0)" xlink:href="#ae"/><use transform="matrix(0.06172839506172839,0,0,0.06172839506172839,44.32098765432098,0)" xlink:href="#af"/><use transform="matrix(0.06172839506172839,0,0,0.06172839506172839,60.30864197530863,0)" xlink:href="#W"/><use transform="matrix(0.06172839506172839,0,0,0.06172839506172839,75.12345679012344,0)" xlink:href="#ag"/></g><path fill="#008573" d="M30-248c118-7 216 8 213 122C240-48 200 0 122 0H30v-248zM63-27c89 8 146-16 146-99s-60-101-146-95v194" id="ah"/><g id="c"><use transform="matrix(0.06172839506172839,0,0,0.06172839506172839,0,0)" xlink:href="#ah"/><use transform="matrix(0.06172839506172839,0,0,0.06172839506172839,15.987654320987653,0)" xlink:href="#Y"/></g><path fill="#008573" d="M190 0L58-211 59 0H30v-248h39L202-35l-2-213h31V0h-41" id="ai"/><path fill="#008573" d="M30-248c87 1 191-15 191 75 0 78-77 80-158 76V0H30v-248zm33 125c57 0 124 11 124-50 0-59-68-47-124-48v98" id="aj"/><path fill="#008573" d="M109-269c9-18 26-28 38-43h37v5l-55 38h-20zm31 18c81 0 123 46 123 126C263-46 219 4 140 4 59 4 17-45 17-125s42-126 123-126zm0 227c63 0 89-41 89-101s-29-99-89-99c-61 0-89 39-89 99S79-25 140-24" id="ak"/><g id="d"><use transform="matrix(0.06172839506172839,0,0,0.06172839506172839,0,0)" xlink:href="#aa"/><use transform="matrix(0.06172839506172839,0,0,0.06172839506172839,6.172839506172839,0)" xlink:href="#ai"/><use transform="matrix(0.06172839506172839,0,0,0.06172839506172839,22.160493827160494,0)" xlink:href="#ae"/><use transform="matrix(0.06172839506172839,0,0,0.06172839506172839,38.148148148148145,0)" xlink:href="#Z"/><use transform="matrix(0.06172839506172839,0,0,0.06172839506172839,54.1358024691358,0)" xlink:href="#aa"/><use transform="matrix(0.06172839506172839,0,0,0.06172839506172839,60.30864197530864,0)" xlink:href="#aj"/><use transform="matrix(0.06172839506172839,0,0,0.06172839506172839,75.12345679012346,0)" xlink:href="#ae"/><use transform="matrix(0.06172839506172839,0,0,0.06172839506172839,91.11111111111111,0)" xlink:href="#aa"/><use transform="matrix(0.06172839506172839,0,0,0.06172839506172839,97.28395061728395,0)" xlink:href="#ak"/><use transform="matrix(0.06172839506172839,0,0,0.06172839506172839,114.5679012345679,0)" xlink:href="#ai"/></g><path fill="#008573" d="M30 0v-248h33v221h125V0H30" id="al"/><path fill="#008573" d="M209 0H11v-25l151-195H24v-28h176v25L50-27h159V0" id="am"/><g id="e"><use transform="matrix(0.06172839506172839,0,0,0.06172839506172839,0,0)" xlink:href="#Z"/><use transform="matrix(0.06172839506172839,0,0,0.06172839506172839,15.987654320987653,0)" xlink:href="#Y"/><use transform="matrix(0.06172839506172839,0,0,0.06172839506172839,30.80246913580247,0)" xlink:href="#W"/><use transform="matrix(0.06172839506172839,0,0,0.06172839506172839,45.61728395061728,0)" xlink:href="#al"/><use transform="matrix(0.06172839506172839,0,0,0.06172839506172839,57.962962962962955,0)" xlink:href="#aa"/><use transform="matrix(0.06172839506172839,0,0,0.06172839506172839,64.1358024691358,0)" xlink:href="#am"/><use transform="matrix(0.06172839506172839,0,0,0.06172839506172839,77.65432098765432,0)" xlink:href="#W"/><use transform="matrix(0.06172839506172839,0,0,0.06172839506172839,92.46913580246913,0)" xlink:href="#Z"/></g><g id="f"><use transform="matrix(0.06172839506172839,0,0,0.06172839506172839,0,0)" xlink:href="#aj"/><use transform="matrix(0.06172839506172839,0,0,0.06172839506172839,14.814814814814813,0)" xlink:href="#Z"/><use transform="matrix(0.06172839506172839,0,0,0.06172839506172839,30.80246913580247,0)" xlink:href="#Y"/><use transform="matrix(0.06172839506172839,0,0,0.06172839506172839,45.61728395061728,0)" xlink:href="#aa"/><use transform="matrix(0.06172839506172839,0,0,0.06172839506172839,51.79012345679012,0)" xlink:href="#ai"/><use transform="matrix(0.06172839506172839,0,0,0.06172839506172839,67.77777777777777,0)" xlink:href="#ae"/><use transform="matrix(0.06172839506172839,0,0,0.06172839506172839,83.76543209876543,0)" xlink:href="#Z"/><use transform="matrix(0.06172839506172839,0,0,0.06172839506172839,99.75308641975309,0)" xlink:href="#aa"/><use transform="matrix(0.06172839506172839,0,0,0.06172839506172839,105.92592592592592,0)" xlink:href="#aj"/><use transform="matrix(0.06172839506172839,0,0,0.06172839506172839,120.74074074074073,0)" xlink:href="#ae"/><use transform="matrix(0.06172839506172839,0,0,0.06172839506172839,136.72839506172838,0)" xlink:href="#aa"/><use transform="matrix(0.06172839506172839,0,0,0.06172839506172839,142.9012345679012,0)" xlink:href="#ak"/><use transform="matrix(0.06172839506172839,0,0,0.06172839506172839,160.18518518518516,0)" xlink:href="#ai"/></g><g id="g"><use transform="matrix(0.06172839506172839,0,0,0.06172839506172839,0,0)" xlink:href="#Y"/><use transform="matrix(0.06172839506172839,0,0,0.06172839506172839,14.814814814814813,0)" xlink:href="#ai"/></g><path fill="#008573" d="M140-251c81 0 123 46 123 126C263-46 219 4 140 4 59 4 17-45 17-125s42-126 123-126zm0 227c63 0 89-41 89-101s-29-99-89-99c-61 0-89 39-89 99S79-25 140-24" id="an"/><path fill="#008573" d="M240 0l2-218c-23 76-54 145-80 218h-23L58-218 59 0H30v-248h44l77 211c21-75 51-140 76-211h43V0h-30" id="ao"/><g id="h"><use transform="matrix(0.06172839506172839,0,0,0.06172839506172839,0,0)" xlink:href="#ad"/><use transform="matrix(0.06172839506172839,0,0,0.06172839506172839,13.518518518518517,0)" xlink:href="#an"/><use transform="matrix(0.06172839506172839,0,0,0.06172839506172839,30.80246913580247,0)" xlink:href="#Z"/><use transform="matrix(0.06172839506172839,0,0,0.06172839506172839,46.79012345679012,0)" xlink:href="#ao"/><use transform="matrix(0.06172839506172839,0,0,0.06172839506172839,65.24691358024691,0)" xlink:href="#ac"/><use transform="matrix(0.06172839506172839,0,0,0.06172839506172839,81.23456790123457,0)" xlink:href="#al"/><use transform="matrix(0.06172839506172839,0,0,0.06172839506172839,93.58024691358025,0)" xlink:href="#W"/><use transform="matrix(0.06172839506172839,0,0,0.06172839506172839,108.39506172839506,0)" xlink:href="#Z"/><use transform="matrix(0.06172839506172839,0,0,0.06172839506172839,124.38271604938272,0)" xlink:href="#aa"/><use transform="matrix(0.06172839506172839,0,0,0.06172839506172839,130.55555555555557,0)" xlink:href="#an"/></g><path fill="#ff8f8f" d="M238-95c0 69-44 99-111 99C63 4 22-25 22-93v-155h51v151c-1 38 19 59 55 60 90 1 49-130 58-211h52v153" id="ap"/><path fill="#ff8f8f" d="M169-182c-1-43-94-46-97-3 18 66 151 10 154 114 3 95-165 93-204 36-6-8-10-19-12-30l50-8c3 46 112 56 116 5-17-69-150-10-154-114-4-87 153-88 188-35 5 8 8 18 10 28" id="aq"/><path fill="#ff8f8f" d="M199 0l-22-63H83L61 0H9l90-248h61L250 0h-51zm-33-102l-36-108c-10 38-24 72-36 108h72" id="ar"/><path fill="#ff8f8f" d="M240-174c0 40-23 61-54 70L253 0h-59l-57-94H76V0H24v-248c93 4 217-23 216 74zM76-134c48-2 112 12 112-38 0-48-66-32-112-35v73" id="as"/><path fill="#ff8f8f" d="M24 0v-248h52V0H24" id="at"/><path fill="#ff8f8f" d="M140-251c80 0 125 45 125 126S219 4 139 4C58 4 15-44 15-125s44-126 125-126zm-1 214c52 0 73-35 73-88 0-50-21-86-72-86-52 0-73 35-73 86s22 88 72 88" id="au"/><g id="i"><use transform="matrix(0.08101851851851852,0,0,0.08101851851851852,0,0)" xlink:href="#ap"/><use transform="matrix(0.07716049382716049,0,0,0.07716049382716049,20.983796296296298,0)" xlink:href="#aq"/><use transform="matrix(0.07716049382716049,0,0,0.07716049382716049,39.50231481481482,0)" xlink:href="#ap"/><use transform="matrix(0.07716049382716049,0,0,0.07716049382716049,59.48688271604938,0)" xlink:href="#ar"/><use transform="matrix(0.07716049382716049,0,0,0.07716049382716049,79.47145061728395,0)" xlink:href="#as"/><use transform="matrix(0.07716049382716049,0,0,0.07716049382716049,99.45601851851852,0)" xlink:href="#at"/><use transform="matrix(0.07716049382716049,0,0,0.07716049382716049,107.17206790123457,0)" xlink:href="#au"/></g><g id="j"><use transform="matrix(0.06172839506172839,0,0,0.06172839506172839,0,0)" xlink:href="#Y"/><use transform="matrix(0.057870370370370364,0,0,0.057870370370370364,14.814814814814813,0)" xlink:href="#ai"/><use transform="matrix(0.057870370370370364,0,0,0.057870370370370364,29.803240740740737,0)" xlink:href="#X"/><use transform="matrix(0.057870370370370364,0,0,0.057870370370370364,43.692129629629626,0)" xlink:href="#aa"/><use transform="matrix(0.057870370370370364,0,0,0.057870370370370364,49.479166666666664,0)" xlink:href="#W"/><use transform="matrix(0.057870370370370364,0,0,0.057870370370370364,63.36805555555555,0)" xlink:href="#Z"/></g><g id="k"><use transform="matrix(0.057870370370370364,0,0,0.057870370370370364,0,0)" xlink:href="#ad"/><use transform="matrix(0.057870370370370364,0,0,0.057870370370370364,12.673611111111109,0)" xlink:href="#an"/><use transform="matrix(0.057870370370370364,0,0,0.057870370370370364,28.87731481481481,0)" xlink:href="#Z"/><use transform="matrix(0.057870370370370364,0,0,0.057870370370370364,43.86574074074073,0)" xlink:href="#ao"/><use transform="matrix(0.057870370370370364,0,0,0.057870370370370364,61.168981481481474,0)" xlink:href="#ac"/><use transform="matrix(0.057870370370370364,0,0,0.057870370370370364,76.15740740740739,0)" xlink:href="#al"/><use transform="matrix(0.057870370370370364,0,0,0.057870370370370364,87.73148148148147,0)" xlink:href="#W"/><use transform="matrix(0.057870370370370364,0,0,0.057870370370370364,101.62037037037035,0)" xlink:href="#Z"/><use transform="matrix(0.057870370370370364,0,0,0.057870370370370364,116.60879629629628,0)" xlink:href="#aa"/><use transform="matrix(0.057870370370370364,0,0,0.057870370370370364,122.39583333333331,0)" xlink:href="#an"/></g><g id="l"><use transform="matrix(0.06172839506172839,0,0,0.06172839506172839,0,0)" xlink:href="#Z"/><use transform="matrix(0.057870370370370364,0,0,0.057870370370370364,15.987654320987655,0)" xlink:href="#Y"/><use transform="matrix(0.057870370370370364,0,0,0.057870370370370364,29.876543209876537,0)" xlink:href="#X"/><use transform="matrix(0.057870370370370364,0,0,0.057870370370370364,43.76543209876543,0)" xlink:href="#aa"/><use transform="matrix(0.057870370370370364,0,0,0.057870370370370364,49.55246913580247,0)" xlink:href="#ag"/><use transform="matrix(0.057870370370370364,0,0,0.057870370370370364,63.44135802469135,0)" xlink:href="#W"/><use transform="matrix(0.057870370370370364,0,0,0.057870370370370364,77.33024691358024,0)" xlink:href="#Z"/></g><g id="m"><use transform="matrix(0.057870370370370364,0,0,0.057870370370370364,0,0)" xlink:href="#ad"/><use transform="matrix(0.057870370370370364,0,0,0.057870370370370364,12.673611111111109,0)" xlink:href="#an"/><use transform="matrix(0.057870370370370364,0,0,0.057870370370370364,28.87731481481481,0)" xlink:href="#Z"/><use transform="matrix(0.057870370370370364,0,0,0.057870370370370364,43.86574074074073,0)" xlink:href="#ao"/><use transform="matrix(0.057870370370370364,0,0,0.057870370370370364,61.168981481481474,0)" xlink:href="#ac"/><use transform="matrix(0.057870370370370364,0,0,0.057870370370370364,76.15740740740739,0)" xlink:href="#al"/><use transform="matrix(0.057870370370370364,0,0,0.057870370370370364,87.73148148148147,0)" xlink:href="#W"/><use transform="matrix(0.057870370370370364,0,0,0.057870370370370364,101.62037037037035,0)" xlink:href="#Z"/><use transform="matrix(0.057870370370370364,0,0,0.057870370370370364,116.60879629629628,0)" xlink:href="#aa"/><use transform="matrix(0.057870370370370364,0,0,0.057870370370370364,122.39583333333331,0)" xlink:href="#an"/></g><g id="n"><use transform="matrix(0.06172839506172839,0,0,0.06172839506172839,0,0)" xlink:href="#X"/><use transform="matrix(0.057870370370370364,0,0,0.057870370370370364,14.814814814814813,0)" xlink:href="#Y"/><use transform="matrix(0.057870370370370364,0,0,0.057870370370370364,28.703703703703702,0)" xlink:href="#Z"/><use transform="matrix(0.057870370370370364,0,0,0.057870370370370364,43.692129629629626,0)" xlink:href="#aa"/><use transform="matrix(0.057870370370370364,0,0,0.057870370370370364,49.479166666666664,0)" xlink:href="#ad"/><use transform="matrix(0.057870370370370364,0,0,0.057870370370370364,62.15277777777777,0)" xlink:href="#aa"/><use transform="matrix(0.057870370370370364,0,0,0.057870370370370364,67.93981481481481,0)" xlink:href="#ae"/><use transform="matrix(0.057870370370370364,0,0,0.057870370370370364,82.92824074074073,0)" xlink:href="#W"/><use transform="matrix(0.057870370370370364,0,0,0.057870370370370364,96.81712962962962,0)" xlink:href="#Z"/></g><path fill="#008573" d="M127-220V0H93v-220H8v-28h204v28h-85" id="av"/><g id="o"><use transform="matrix(0.057870370370370364,0,0,0.057870370370370364,0,0)" xlink:href="#ao"/><use transform="matrix(0.057870370370370364,0,0,0.057870370370370364,17.30324074074074,0)" xlink:href="#W"/><use transform="matrix(0.057870370370370364,0,0,0.057870370370370364,29.629629629629626,0)" xlink:href="#av"/><use transform="matrix(0.057870370370370364,0,0,0.057870370370370364,42.30324074074073,0)" xlink:href="#Y"/><use transform="matrix(0.057870370370370364,0,0,0.057870370370370364,56.19212962962962,0)" xlink:href="#Z"/><use transform="matrix(0.057870370370370364,0,0,0.057870370370370364,71.18055555555554,0)" xlink:href="#aa"/><use transform="matrix(0.057870370370370364,0,0,0.057870370370370364,76.96759259259258,0)" xlink:href="#W"/><use transform="matrix(0.057870370370370364,0,0,0.057870370370370364,90.85648148148147,0)" xlink:href="#ag"/></g><path fill="#008573" d="M160-131c35 5 61 23 61 61C221 17 115-2 30 0v-248c76 3 177-17 177 60 0 33-19 50-47 57zm-97-11c50-1 110 9 110-42 0-47-63-36-110-37v79zm0 115c55-2 124 14 124-45 0-56-70-42-124-44v89" id="aw"/><g id="p"><use transform="matrix(0.06172839506172839,0,0,0.06172839506172839,0,0)" xlink:href="#aj"/><use transform="matrix(0.06172839506172839,0,0,0.06172839506172839,14.814814814814813,0)" xlink:href="#ac"/><use transform="matrix(0.06172839506172839,0,0,0.06172839506172839,30.80246913580247,0)" xlink:href="#aw"/><use transform="matrix(0.06172839506172839,0,0,0.06172839506172839,45.61728395061728,0)" xlink:href="#al"/><use transform="matrix(0.06172839506172839,0,0,0.06172839506172839,57.962962962962955,0)" xlink:href="#aa"/><use transform="matrix(0.06172839506172839,0,0,0.06172839506172839,64.1358024691358,0)" xlink:href="#ae"/><use transform="matrix(0.06172839506172839,0,0,0.06172839506172839,80.12345679012346,0)" xlink:href="#W"/><use transform="matrix(0.06172839506172839,0,0,0.06172839506172839,94.93827160493827,0)" xlink:href="#Z"/></g><g id="q"><use transform="matrix(0.06172839506172839,0,0,0.06172839506172839,0,0)" xlink:href="#ao"/><use transform="matrix(0.06172839506172839,0,0,0.06172839506172839,18.456790123456788,0)" xlink:href="#W"/><use transform="matrix(0.06172839506172839,0,0,0.06172839506172839,31.604938271604933,0)" xlink:href="#av"/><use transform="matrix(0.06172839506172839,0,0,0.06172839506172839,45.12345679012345,0)" xlink:href="#Y"/><use transform="matrix(0.06172839506172839,0,0,0.06172839506172839,59.938271604938265,0)" xlink:href="#Z"/><use transform="matrix(0.06172839506172839,0,0,0.06172839506172839,75.92592592592592,0)" xlink:href="#aa"/><use transform="matrix(0.06172839506172839,0,0,0.06172839506172839,82.09876543209876,0)" xlink:href="#W"/><use transform="matrix(0.06172839506172839,0,0,0.06172839506172839,96.91358024691357,0)" xlink:href="#ag"/></g><path fill="#008573" d="M137-103V0h-34v-103L8-248h37l75 118 75-118h37" id="ax"/><use transform="matrix(0.06172839506172839,0,0,0.06172839506172839,0,0)" xlink:href="#ax" id="r"/><g id="s"><use transform="matrix(0.06172839506172839,0,0,0.06172839506172839,0,0)" xlink:href="#af"/><use transform="matrix(0.06172839506172839,0,0,0.06172839506172839,15.987654320987653,0)" xlink:href="#an"/><use transform="matrix(0.06172839506172839,0,0,0.06172839506172839,33.2716049382716,0)" xlink:href="#Z"/><use transform="matrix(0.06172839506172839,0,0,0.06172839506172839,49.25925925925925,0)" xlink:href="#W"/><use transform="matrix(0.06172839506172839,0,0,0.06172839506172839,64.07407407407406,0)" xlink:href="#Z"/><use transform="matrix(0.06172839506172839,0,0,0.06172839506172839,80.06172839506172,0)" xlink:href="#aa"/><use transform="matrix(0.06172839506172839,0,0,0.06172839506172839,86.23456790123456,0)" xlink:href="#an"/><use transform="matrix(0.06172839506172839,0,0,0.06172839506172839,103.5185185185185,0)" xlink:href="#ag"/></g><g id="t"><use transform="matrix(0.06172839506172839,0,0,0.06172839506172839,0,0)" xlink:href="#af"/><use transform="matrix(0.06172839506172839,0,0,0.06172839506172839,15.987654320987653,0)" xlink:href="#W"/><use transform="matrix(0.06172839506172839,0,0,0.06172839506172839,30.80246913580247,0)" xlink:href="#aw"/><use transform="matrix(0.06172839506172839,0,0,0.06172839506172839,45.61728395061728,0)" xlink:href="#aa"/><use transform="matrix(0.06172839506172839,0,0,0.06172839506172839,51.79012345679012,0)" xlink:href="#al"/><use transform="matrix(0.06172839506172839,0,0,0.06172839506172839,64.1358024691358,0)" xlink:href="#aa"/><use transform="matrix(0.06172839506172839,0,0,0.06172839506172839,70.30864197530863,0)" xlink:href="#av"/><use transform="matrix(0.06172839506172839,0,0,0.06172839506172839,82.16049382716048,0)" xlink:href="#W"/><use transform="matrix(0.06172839506172839,0,0,0.06172839506172839,96.97530864197529,0)" xlink:href="#ah"/><use transform="matrix(0.06172839506172839,0,0,0.06172839506172839,112.96296296296295,0)" xlink:href="#an"/><use transform="matrix(0.06172839506172839,0,0,0.06172839506172839,130.24691358024688,0)" xlink:href="#ag"/></g><g id="u"><use transform="matrix(0.06172839506172839,0,0,0.06172839506172839,0,0)" xlink:href="#ao"/><use transform="matrix(0.06172839506172839,0,0,0.06172839506172839,18.456790123456788,0)" xlink:href="#W"/><use transform="matrix(0.06172839506172839,0,0,0.06172839506172839,31.604938271604933,0)" xlink:href="#av"/><use transform="matrix(0.06172839506172839,0,0,0.06172839506172839,45.12345679012345,0)" xlink:href="#Y"/><use transform="matrix(0.06172839506172839,0,0,0.06172839506172839,59.938271604938265,0)" xlink:href="#Z"/><use transform="matrix(0.06172839506172839,0,0,0.06172839506172839,75.92592592592592,0)" xlink:href="#aa"/><use transform="matrix(0.06172839506172839,0,0,0.06172839506172839,82.09876543209876,0)" xlink:href="#W"/><use transform="matrix(0.06172839506172839,0,0,0.06172839506172839,96.91358024691357,0)" xlink:href="#ag"/></g><g id="v"><use transform="matrix(0.06172839506172839,0,0,0.06172839506172839,0,0)" xlink:href="#ah"/><use transform="matrix(0.06172839506172839,0,0,0.06172839506172839,15.987654320987653,0)" xlink:href="#aa"/><use transform="matrix(0.06172839506172839,0,0,0.06172839506172839,22.160493827160494,0)" xlink:href="#ag"/><use transform="matrix(0.06172839506172839,0,0,0.06172839506172839,36.9753086419753,0)" xlink:href="#aj"/><use transform="matrix(0.06172839506172839,0,0,0.06172839506172839,51.79012345679011,0)" xlink:href="#an"/><use transform="matrix(0.06172839506172839,0,0,0.06172839506172839,69.07407407407406,0)" xlink:href="#ai"/><use transform="matrix(0.06172839506172839,0,0,0.06172839506172839,85.06172839506172,0)" xlink:href="#aa"/><use transform="matrix(0.06172839506172839,0,0,0.06172839506172839,91.23456790123456,0)" xlink:href="#aw"/><use transform="matrix(0.06172839506172839,0,0,0.06172839506172839,106.04938271604937,0)" xlink:href="#al"/><use transform="matrix(0.06172839506172839,0,0,0.06172839506172839,118.39506172839505,0)" xlink:href="#Y"/><use transform="matrix(0.06172839506172839,0,0,0.06172839506172839,133.20987654320987,0)" xlink:href="#ag"/></g><path fill="#e81313" d="M175 0L67-191c6 58 2 128 3 191H24v-248h59L193-55c-6-58-2-129-3-193h46V0h-61" id="ay"/><path fill="#e81313" d="M140-251c80 0 125 45 125 126S219 4 139 4C58 4 15-44 15-125s44-126 125-126zm-1 214c52 0 73-35 73-88 0-50-21-86-72-86-52 0-73 35-73 86s22 88 72 88" id="az"/><g id="w"><use transform="matrix(0.06867283950617285,0,0,0.06867283950617285,0,0)" xlink:href="#ay"/><use transform="matrix(0.06867283950617285,0,0,0.06867283950617285,17.78626543209877,0)" xlink:href="#az"/></g><path fill="#008a0e" d="M169-182c-1-43-94-46-97-3 18 66 151 10 154 114 3 95-165 93-204 36-6-8-10-19-12-30l50-8c3 46 112 56 116 5-17-69-150-10-154-114-4-87 153-88 188-35 5 8 8 18 10 28" id="aA"/><path fill="#008a0e" d="M18-269v-5l45-45h45v8l-60 42H18zM24 0v-248h52V0H24" id="aB"/><g id="x"><use transform="matrix(0.06867283950617285,0,0,0.06867283950617285,0,0)" xlink:href="#aA"/><use transform="matrix(0.06867283950617285,0,0,0.06867283950617285,16.481481481481485,0)" xlink:href="#aB"/></g><g id="y"><use transform="matrix(0.06172839506172839,0,0,0.06172839506172839,0,0)" xlink:href="#ag"/><use transform="matrix(0.06172839506172839,0,0,0.06172839506172839,14.814814814814813,0)" xlink:href="#an"/><use transform="matrix(0.06172839506172839,0,0,0.06172839506172839,32.09876543209876,0)" xlink:href="#al"/><use transform="matrix(0.06172839506172839,0,0,0.06172839506172839,44.444444444444436,0)" xlink:href="#aa"/><use transform="matrix(0.06172839506172839,0,0,0.06172839506172839,50.61728395061728,0)" xlink:href="#ae"/><use transform="matrix(0.06172839506172839,0,0,0.06172839506172839,66.60493827160494,0)" xlink:href="#aa"/><use transform="matrix(0.06172839506172839,0,0,0.06172839506172839,72.77777777777777,0)" xlink:href="#av"/><use transform="matrix(0.06172839506172839,0,0,0.06172839506172839,84.62962962962962,0)" xlink:href="#W"/><use transform="matrix(0.06172839506172839,0,0,0.06172839506172839,99.44444444444443,0)" xlink:href="#Z"/></g><g id="z"><use transform="matrix(0.06172839506172839,0,0,0.06172839506172839,0,0)" xlink:href="#ae"/><use transform="matrix(0.06172839506172839,0,0,0.06172839506172839,15.987654320987653,0)" xlink:href="#ak"/><use transform="matrix(0.06172839506172839,0,0,0.06172839506172839,33.2716049382716,0)" xlink:href="#ah"/><use transform="matrix(0.06172839506172839,0,0,0.06172839506172839,49.25925925925925,0)" xlink:href="#aa"/><use transform="matrix(0.06172839506172839,0,0,0.06172839506172839,55.432098765432094,0)" xlink:href="#ab"/><use transform="matrix(0.06172839506172839,0,0,0.06172839506172839,72.71604938271605,0)" xlink:href="#an"/></g><g id="A"><use transform="matrix(0.06172839506172839,0,0,0.06172839506172839,0,0)" xlink:href="#ae"/><use transform="matrix(0.06172839506172839,0,0,0.06172839506172839,15.987654320987653,0)" xlink:href="#aj"/><use transform="matrix(0.06172839506172839,0,0,0.06172839506172839,30.80246913580247,0)" xlink:href="#av"/></g><g id="B"><use transform="matrix(0.06172839506172839,0,0,0.06172839506172839,0,0)" xlink:href="#ab"/><use transform="matrix(0.06172839506172839,0,0,0.06172839506172839,17.28395061728395,0)" xlink:href="#Y"/><use transform="matrix(0.06172839506172839,0,0,0.06172839506172839,32.09876543209876,0)" xlink:href="#ai"/><use transform="matrix(0.06172839506172839,0,0,0.06172839506172839,48.08641975308641,0)" xlink:href="#Y"/><use transform="matrix(0.06172839506172839,0,0,0.06172839506172839,62.90123456790123,0)" xlink:href="#Z"/><use transform="matrix(0.06172839506172839,0,0,0.06172839506172839,78.88888888888889,0)" xlink:href="#W"/><use transform="matrix(0.06172839506172839,0,0,0.06172839506172839,93.7037037037037,0)" xlink:href="#Z"/></g><g id="C"><use transform="matrix(0.06172839506172839,0,0,0.06172839506172839,0,0)" xlink:href="#Z"/><use transform="matrix(0.06172839506172839,0,0,0.06172839506172839,15.987654320987653,0)" xlink:href="#Y"/><use transform="matrix(0.06172839506172839,0,0,0.06172839506172839,30.80246913580247,0)" xlink:href="#W"/><use transform="matrix(0.06172839506172839,0,0,0.06172839506172839,45.61728395061728,0)" xlink:href="#al"/><use transform="matrix(0.06172839506172839,0,0,0.06172839506172839,57.962962962962955,0)" xlink:href="#aa"/><use transform="matrix(0.06172839506172839,0,0,0.06172839506172839,64.1358024691358,0)" xlink:href="#am"/><use transform="matrix(0.06172839506172839,0,0,0.06172839506172839,77.65432098765432,0)" xlink:href="#W"/><use transform="matrix(0.06172839506172839,0,0,0.06172839506172839,92.46913580246913,0)" xlink:href="#Z"/></g><g id="D"><use transform="matrix(0.06172839506172839,0,0,0.06172839506172839,0,0)" xlink:href="#ah"/><use transform="matrix(0.06172839506172839,0,0,0.06172839506172839,15.987654320987653,0)" xlink:href="#Y"/><use transform="matrix(0.06172839506172839,0,0,0.06172839506172839,30.80246913580247,0)" xlink:href="#aj"/><use transform="matrix(0.06172839506172839,0,0,0.06172839506172839,45.61728395061728,0)" xlink:href="#ak"/><use transform="matrix(0.06172839506172839,0,0,0.06172839506172839,62.90123456790123,0)" xlink:href="#ag"/><use transform="matrix(0.06172839506172839,0,0,0.06172839506172839,77.71604938271604,0)" xlink:href="#aa"/><use transform="matrix(0.06172839506172839,0,0,0.06172839506172839,83.88888888888887,0)" xlink:href="#av"/><use transform="matrix(0.06172839506172839,0,0,0.06172839506172839,96.97530864197529,0)" xlink:href="#an"/></g><g id="E"><use transform="matrix(0.06172839506172839,0,0,0.06172839506172839,0,0)" xlink:href="#ae"/><use transform="matrix(0.06172839506172839,0,0,0.06172839506172839,15.987654320987653,0)" xlink:href="#an"/><use transform="matrix(0.06172839506172839,0,0,0.06172839506172839,33.2716049382716,0)" xlink:href="#ai"/><use transform="matrix(0.06172839506172839,0,0,0.06172839506172839,49.25925925925925,0)" xlink:href="#av"/><use transform="matrix(0.06172839506172839,0,0,0.06172839506172839,61.11111111111111,0)" xlink:href="#W"/><use transform="matrix(0.06172839506172839,0,0,0.06172839506172839,75.92592592592592,0)" xlink:href="#aw"/><use transform="matrix(0.06172839506172839,0,0,0.06172839506172839,90.74074074074073,0)" xlink:href="#aa"/><use transform="matrix(0.06172839506172839,0,0,0.06172839506172839,96.91358024691357,0)" xlink:href="#al"/><use transform="matrix(0.06172839506172839,0,0,0.06172839506172839,109.25925925925925,0)" xlink:href="#aa"/><use transform="matrix(0.06172839506172839,0,0,0.06172839506172839,115.43209876543209,0)" xlink:href="#am"/><use transform="matrix(0.06172839506172839,0,0,0.06172839506172839,128.9506172839506,0)" xlink:href="#W"/><use transform="matrix(0.06172839506172839,0,0,0.06172839506172839,143.76543209876542,0)" xlink:href="#Z"/></g><g id="F"><use transform="matrix(0.06172839506172839,0,0,0.06172839506172839,0,0)" xlink:href="#ao"/><use transform="matrix(0.06172839506172839,0,0,0.06172839506172839,18.456790123456788,0)" xlink:href="#W"/><use transform="matrix(0.06172839506172839,0,0,0.06172839506172839,31.604938271604933,0)" xlink:href="#av"/><use transform="matrix(0.06172839506172839,0,0,0.06172839506172839,45.12345679012345,0)" xlink:href="#Y"/><use transform="matrix(0.06172839506172839,0,0,0.06172839506172839,59.938271604938265,0)" xlink:href="#Z"/><use transform="matrix(0.06172839506172839,0,0,0.06172839506172839,75.92592592592592,0)" xlink:href="#aa"/><use transform="matrix(0.06172839506172839,0,0,0.06172839506172839,82.09876543209876,0)" xlink:href="#W"/><use transform="matrix(0.06172839506172839,0,0,0.06172839506172839,96.91358024691357,0)" xlink:href="#ag"/></g><g id="G"><use transform="matrix(0.06172839506172839,0,0,0.06172839506172839,0,0)" xlink:href="#af"/><use transform="matrix(0.06172839506172839,0,0,0.06172839506172839,15.987654320987653,0)" xlink:href="#W"/><use transform="matrix(0.06172839506172839,0,0,0.06172839506172839,30.80246913580247,0)" xlink:href="#aw"/><use transform="matrix(0.06172839506172839,0,0,0.06172839506172839,45.61728395061728,0)" xlink:href="#aa"/><use transform="matrix(0.06172839506172839,0,0,0.06172839506172839,51.79012345679012,0)" xlink:href="#al"/><use transform="matrix(0.06172839506172839,0,0,0.06172839506172839,64.1358024691358,0)" xlink:href="#aa"/><use transform="matrix(0.06172839506172839,0,0,0.06172839506172839,70.30864197530863,0)" xlink:href="#av"/><use transform="matrix(0.06172839506172839,0,0,0.06172839506172839,82.16049382716048,0)" xlink:href="#W"/><use transform="matrix(0.06172839506172839,0,0,0.06172839506172839,96.97530864197529,0)" xlink:href="#Z"/></g><g id="H"><use transform="matrix(0.06172839506172839,0,0,0.06172839506172839,0,0)" xlink:href="#ag"/><use transform="matrix(0.06172839506172839,0,0,0.06172839506172839,14.814814814814813,0)" xlink:href="#aa"/><use transform="matrix(0.06172839506172839,0,0,0.06172839506172839,20.98765432098765,0)" xlink:href="#ag"/><use transform="matrix(0.06172839506172839,0,0,0.06172839506172839,35.80246913580247,0)" xlink:href="#av"/><use transform="matrix(0.06172839506172839,0,0,0.06172839506172839,49.32098765432099,0)" xlink:href="#Y"/><use transform="matrix(0.06172839506172839,0,0,0.06172839506172839,64.1358024691358,0)" xlink:href="#ao"/><use transform="matrix(0.06172839506172839,0,0,0.06172839506172839,82.59259259259258,0)" xlink:href="#W"/></g><g id="I"><use transform="matrix(0.06172839506172839,0,0,0.06172839506172839,0,0)" xlink:href="#ah"/><use transform="matrix(0.06172839506172839,0,0,0.06172839506172839,15.987654320987653,0)" xlink:href="#Y"/></g><g id="J"><use transform="matrix(0.06172839506172839,0,0,0.06172839506172839,0,0)" xlink:href="#aa"/><use transform="matrix(0.06172839506172839,0,0,0.06172839506172839,6.172839506172839,0)" xlink:href="#ai"/><use transform="matrix(0.06172839506172839,0,0,0.06172839506172839,22.160493827160494,0)" xlink:href="#ag"/><use transform="matrix(0.06172839506172839,0,0,0.06172839506172839,36.9753086419753,0)" xlink:href="#ae"/><use transform="matrix(0.06172839506172839,0,0,0.06172839506172839,52.962962962962955,0)" xlink:href="#Z"/><use transform="matrix(0.06172839506172839,0,0,0.06172839506172839,68.9506172839506,0)" xlink:href="#aa"/><use transform="matrix(0.06172839506172839,0,0,0.06172839506172839,75.12345679012344,0)" xlink:href="#aj"/><use transform="matrix(0.06172839506172839,0,0,0.06172839506172839,89.93827160493825,0)" xlink:href="#ae"/><use transform="matrix(0.06172839506172839,0,0,0.06172839506172839,105.92592592592591,0)" xlink:href="#aa"/><use transform="matrix(0.06172839506172839,0,0,0.06172839506172839,112.09876543209874,0)" xlink:href="#ak"/><use transform="matrix(0.06172839506172839,0,0,0.06172839506172839,129.38271604938268,0)" xlink:href="#ai"/></g><g id="K"><use transform="matrix(0.06172839506172839,0,0,0.06172839506172839,0,0)" xlink:href="#ag"/><use transform="matrix(0.06172839506172839,0,0,0.06172839506172839,14.814814814814813,0)" xlink:href="#Y"/><use transform="matrix(0.06172839506172839,0,0,0.06172839506172839,29.629629629629626,0)" xlink:href="#al"/><use transform="matrix(0.06172839506172839,0,0,0.06172839506172839,41.9753086419753,0)" xlink:href="#Y"/><use transform="matrix(0.06172839506172839,0,0,0.06172839506172839,56.79012345679011,0)" xlink:href="#ae"/><use transform="matrix(0.06172839506172839,0,0,0.06172839506172839,72.77777777777777,0)" xlink:href="#ae"/><use transform="matrix(0.06172839506172839,0,0,0.06172839506172839,88.76543209876543,0)" xlink:href="#aa"/><use transform="matrix(0.06172839506172839,0,0,0.06172839506172839,94.93827160493827,0)" xlink:href="#an"/><use transform="matrix(0.06172839506172839,0,0,0.06172839506172839,112.22222222222221,0)" xlink:href="#ai"/><use transform="matrix(0.06172839506172839,0,0,0.06172839506172839,128.20987654320987,0)" xlink:href="#W"/><use transform="matrix(0.06172839506172839,0,0,0.06172839506172839,143.02469135802468,0)" xlink:href="#Z"/></g><g id="L"><use transform="matrix(0.06172839506172839,0,0,0.06172839506172839,0,0)" xlink:href="#aa"/><use transform="matrix(0.06172839506172839,0,0,0.06172839506172839,6.172839506172839,0)" xlink:href="#ai"/><use transform="matrix(0.06172839506172839,0,0,0.06172839506172839,22.160493827160494,0)" xlink:href="#ag"/><use transform="matrix(0.06172839506172839,0,0,0.06172839506172839,36.9753086419753,0)" xlink:href="#ae"/><use transform="matrix(0.06172839506172839,0,0,0.06172839506172839,52.962962962962955,0)" xlink:href="#Z"/><use transform="matrix(0.06172839506172839,0,0,0.06172839506172839,68.9506172839506,0)" xlink:href="#aa"/><use transform="matrix(0.06172839506172839,0,0,0.06172839506172839,75.12345679012344,0)" xlink:href="#aw"/><use transform="matrix(0.06172839506172839,0,0,0.06172839506172839,89.93827160493825,0)" xlink:href="#aa"/><use transform="matrix(0.06172839506172839,0,0,0.06172839506172839,96.11111111111109,0)" xlink:href="#Z"/><use transform="matrix(0.06172839506172839,0,0,0.06172839506172839,112.09876543209874,0)" xlink:href="#ag"/><use transform="matrix(0.06172839506172839,0,0,0.06172839506172839,126.91358024691354,0)" xlink:href="#Y"/></g><g id="M"><use transform="matrix(0.06172839506172839,0,0,0.06172839506172839,0,0)" xlink:href="#aj"/><use transform="matrix(0.06172839506172839,0,0,0.06172839506172839,14.814814814814813,0)" xlink:href="#Z"/><use transform="matrix(0.06172839506172839,0,0,0.06172839506172839,30.80246913580247,0)" xlink:href="#Y"/><use transform="matrix(0.06172839506172839,0,0,0.06172839506172839,45.61728395061728,0)" xlink:href="#ag"/><use transform="matrix(0.06172839506172839,0,0,0.06172839506172839,60.43209876543209,0)" xlink:href="#Y"/><use transform="matrix(0.06172839506172839,0,0,0.06172839506172839,75.2469135802469,0)" xlink:href="#ai"/><use transform="matrix(0.06172839506172839,0,0,0.06172839506172839,91.23456790123456,0)" xlink:href="#av"/><use transform="matrix(0.06172839506172839,0,0,0.06172839506172839,103.0864197530864,0)" xlink:href="#W"/><use transform="matrix(0.06172839506172839,0,0,0.06172839506172839,117.90123456790121,0)" xlink:href="#Z"/></g><g id="N"><use transform="matrix(0.06172839506172839,0,0,0.06172839506172839,0,0)" xlink:href="#ah"/><use transform="matrix(0.06172839506172839,0,0,0.06172839506172839,15.987654320987653,0)" xlink:href="#an"/><use transform="matrix(0.06172839506172839,0,0,0.06172839506172839,33.2716049382716,0)" xlink:href="#ae"/><use transform="matrix(0.06172839506172839,0,0,0.06172839506172839,49.25925925925925,0)" xlink:href="#ac"/><use transform="matrix(0.06172839506172839,0,0,0.06172839506172839,65.24691358024691,0)" xlink:href="#ao"/><use transform="matrix(0.06172839506172839,0,0,0.06172839506172839,83.7037037037037,0)" xlink:href="#Y"/><use transform="matrix(0.06172839506172839,0,0,0.06172839506172839,98.5185185185185,0)" xlink:href="#ai"/><use transform="matrix(0.06172839506172839,0,0,0.06172839506172839,114.50617283950616,0)" xlink:href="#av"/><use transform="matrix(0.06172839506172839,0,0,0.06172839506172839,127.59259259259258,0)" xlink:href="#an"/><use transform="matrix(0.06172839506172839,0,0,0.06172839506172839,144.87654320987653,0)" xlink:href="#ag"/></g><g id="O"><use transform="matrix(0.06172839506172839,0,0,0.06172839506172839,0,0)" xlink:href="#X"/><use transform="matrix(0.06172839506172839,0,0,0.06172839506172839,14.814814814814813,0)" xlink:href="#Y"/><use transform="matrix(0.06172839506172839,0,0,0.06172839506172839,29.629629629629626,0)" xlink:href="#Z"/><use transform="matrix(0.06172839506172839,0,0,0.06172839506172839,45.61728395061728,0)" xlink:href="#aa"/><use transform="matrix(0.06172839506172839,0,0,0.06172839506172839,51.79012345679012,0)" xlink:href="#ad"/><use transform="matrix(0.06172839506172839,0,0,0.06172839506172839,65.30864197530863,0)" xlink:href="#aa"/><use transform="matrix(0.06172839506172839,0,0,0.06172839506172839,71.48148148148147,0)" xlink:href="#ae"/><use transform="matrix(0.06172839506172839,0,0,0.06172839506172839,87.46913580246913,0)" xlink:href="#W"/><use transform="matrix(0.06172839506172839,0,0,0.06172839506172839,102.28395061728394,0)" xlink:href="#Z"/></g><g id="P"><use transform="matrix(0.06172839506172839,0,0,0.06172839506172839,0,0)" xlink:href="#X"/><use transform="matrix(0.06172839506172839,0,0,0.06172839506172839,13.148148148148147,0)" xlink:href="#W"/><use transform="matrix(0.06172839506172839,0,0,0.06172839506172839,27.962962962962962,0)" xlink:href="#al"/><use transform="matrix(0.06172839506172839,0,0,0.06172839506172839,40.30864197530864,0)" xlink:href="#aa"/><use transform="matrix(0.06172839506172839,0,0,0.06172839506172839,46.48148148148148,0)" xlink:href="#ah"/><use transform="matrix(0.06172839506172839,0,0,0.06172839506172839,62.46913580246913,0)" xlink:href="#W"/><use transform="matrix(0.06172839506172839,0,0,0.06172839506172839,77.28395061728395,0)" xlink:href="#Z"/></g><g id="Q"><use transform="matrix(0.08101851851851852,0,0,0.08101851851851852,0,0)" xlink:href="#aq"/><use transform="matrix(0.08101851851851852,0,0,0.08101851851851852,19.444444444444443,0)" xlink:href="#aq"/><use transform="matrix(0.08101851851851852,0,0,0.08101851851851852,38.888888888888886,0)" xlink:href="#ar"/></g><path fill="#ff8f8f" d="M67-125c0 53 21 87 73 88 37 1 54-22 65-47l45 17C233-25 199 4 140 4 58 4 20-42 15-125 8-235 124-281 211-232c18 10 29 29 36 50l-46 12c-8-25-30-41-62-41-52 0-71 34-72 86" id="aC"/><path fill="#ff8f8f" d="M24 0v-248h195v40H76v63h132v40H76v65h150V0H24" id="aD"/><path fill="#ff8f8f" d="M175 0L67-191c6 58 2 128 3 191H24v-248h59L193-55c-6-58-2-129-3-193h46V0h-61" id="aE"/><path fill="#ff8f8f" d="M136-208V0H84v-208H4v-40h212v40h-80" id="aF"/><g id="R"><use transform="matrix(0.08101851851851852,0,0,0.08101851851851852,0,0)" xlink:href="#aC"/><use transform="matrix(0.08101851851851852,0,0,0.08101851851851852,20.983796296296298,0)" xlink:href="#aD"/><use transform="matrix(0.08101851851851852,0,0,0.08101851851851852,40.42824074074074,0)" xlink:href="#aE"/><use transform="matrix(0.08101851851851852,0,0,0.08101851851851852,61.41203703703704,0)" xlink:href="#aF"/><use transform="matrix(0.08101851851851852,0,0,0.08101851851851852,79.1550925925926,0)" xlink:href="#as"/><use transform="matrix(0.08101851851851852,0,0,0.08101851851851852,100.13888888888889,0)" xlink:href="#au"/></g><path fill="#ff8f8f" d="M24-248c120-7 223 5 221 122C244-46 201 0 124 0H24v-248zM76-40c74 7 117-18 117-86 0-67-45-88-117-82v168" id="aG"/><g id="S"><use transform="matrix(0.08101851851851852,0,0,0.08101851851851852,0,0)" xlink:href="#aG"/><use transform="matrix(0.08101851851851852,0,0,0.08101851851851852,20.983796296296298,0)" xlink:href="#aD"/></g><g id="T"><use transform="matrix(0.08101851851851852,0,0,0.08101851851851852,0,0)" xlink:href="#aD"/><use transform="matrix(0.08101851851851852,0,0,0.08101851851851852,19.444444444444443,0)" xlink:href="#aq"/><use transform="matrix(0.08101851851851852,0,0,0.08101851851851852,38.888888888888886,0)" xlink:href="#aF"/><use transform="matrix(0.08101851851851852,0,0,0.08101851851851852,56.63194444444444,0)" xlink:href="#ap"/><use transform="matrix(0.08101851851851852,0,0,0.08101851851851852,77.61574074074073,0)" xlink:href="#aG"/><use transform="matrix(0.08101851851851852,0,0,0.08101851851851852,98.59953703703704,0)" xlink:href="#at"/><use transform="matrix(0.08101851851851852,0,0,0.08101851851851852,106.70138888888889,0)" xlink:href="#ar"/><use transform="matrix(0.08101851851851852,0,0,0.08101851851851852,127.68518518518519,0)" xlink:href="#aE"/><use transform="matrix(0.08101851851851852,0,0,0.08101851851851852,148.6689814814815,0)" xlink:href="#aF"/><use transform="matrix(0.08101851851851852,0,0,0.08101851851851852,166.41203703703704,0)" xlink:href="#aD"/><use transform="matrix(0.08101851851851852,0,0,0.08101851851851852,185.85648148148147,0)" xlink:href="#aq"/></g><g id="U"><use transform="matrix(0.06172839506172839,0,0,0.06172839506172839,0,0)" xlink:href="#ai"/><use transform="matrix(0.06172839506172839,0,0,0.06172839506172839,15.987654320987653,0)" xlink:href="#an"/></g><g id="V"><use transform="matrix(0.06172839506172839,0,0,0.06172839506172839,0,0)" xlink:href="#aa"/><use transform="matrix(0.06172839506172839,0,0,0.06172839506172839,6.172839506172839,0)" xlink:href="#ai"/><use transform="matrix(0.06172839506172839,0,0,0.06172839506172839,22.160493827160494,0)" xlink:href="#ag"/><use transform="matrix(0.06172839506172839,0,0,0.06172839506172839,36.9753086419753,0)" xlink:href="#ae"/><use transform="matrix(0.06172839506172839,0,0,0.06172839506172839,52.962962962962955,0)" xlink:href="#Z"/><use transform="matrix(0.06172839506172839,0,0,0.06172839506172839,68.9506172839506,0)" xlink:href="#aa"/><use transform="matrix(0.06172839506172839,0,0,0.06172839506172839,75.12345679012344,0)" xlink:href="#aw"/><use transform="matrix(0.06172839506172839,0,0,0.06172839506172839,89.93827160493825,0)" xlink:href="#aa"/><use transform="matrix(0.06172839506172839,0,0,0.06172839506172839,96.11111111111109,0)" xlink:href="#Z"/><use transform="matrix(0.06172839506172839,0,0,0.06172839506172839,112.09876543209874,0)" xlink:href="#ag"/><use transform="matrix(0.06172839506172839,0,0,0.06172839506172839,126.91358024691354,0)" xlink:href="#Y"/></g></defs></g></svg>